<?xml version="1.0" encoding="utf-8"?>
<!-- Generator: Adobe Illustrator 16.0.0, SVG Export Plug-In . SVG Version: 6.00 Build 0)  -->
<!DOCTYPE svg PUBLIC "-//W3C//DTD SVG 1.1//EN" "http://www.w3.org/Graphics/SVG/1.1/DTD/svg11.dtd">
<svg version="1.1" xmlns="http://www.w3.org/2000/svg" xmlns:xlink="http://www.w3.org/1999/xlink" x="0px" y="0px" width="900px"
	 height="700px" viewBox="0 0 900 700" enable-background="new 0 0 900 700" xml:space="preserve">
<g id="BG">
	<rect fill="#0672D0" width="900" height="700"/>
</g>
<g id="_x30_2">
	<g>
		<g id="_x30_9-11">
			<g>
				<g>
					<path fill="#FFFFFF" d="M161.382,631.162c-52.219,0-94.549-42.331-94.549-94.547c0-52.214,42.33-94.546,94.549-94.546
						c52.217,0,94.547,42.332,94.547,94.546C255.929,588.831,213.599,631.162,161.382,631.162z M229.056,536.615
						c0-37.374-30.301-67.674-67.674-67.674c-37.375,0-67.676,30.3-67.676,67.674c0,37.382,30.301,67.676,67.676,67.676
						C198.755,604.291,229.056,573.997,229.056,536.615z"/>
					<g>
						<path fill="#FFFFFF" d="M137.239,542.369v5.075h-19.146c0.207-1.918,0.828-3.736,1.865-5.451
							c1.037-1.718,3.086-3.997,6.145-6.835c2.461-2.294,3.971-3.849,4.527-4.666c0.754-1.126,1.127-2.243,1.127-3.343
							c0-1.217-0.326-2.153-0.98-2.807c-0.654-0.657-1.559-0.983-2.711-0.983c-1.143,0-2.049,0.342-2.723,1.03
							c-0.674,0.688-1.063,1.827-1.166,3.421l-5.441-0.544c0.324-3.005,1.34-5.163,3.049-6.473c1.711-1.31,3.85-1.964,6.416-1.964
							c2.814,0,5.021,0.758,6.629,2.274c1.605,1.516,2.41,3.401,2.41,5.656c0,1.283-0.229,2.504-0.691,3.662
							c-0.459,1.163-1.189,2.375-2.186,3.647c-0.66,0.843-1.852,2.053-3.576,3.635s-2.814,2.631-3.277,3.148
							c-0.457,0.517-0.83,1.021-1.115,1.516H137.239z"/>
						<path fill="#FFFFFF" d="M150.165,518.83c2.76,0,4.92,0.983,6.475,2.955c1.852,2.332,2.777,6.2,2.777,11.604
							c0,5.393-0.934,9.264-2.799,11.623c-1.543,1.941-3.693,2.916-6.453,2.916c-2.773,0-5.01-1.066-6.707-3.198
							c-1.695-2.132-2.545-5.93-2.545-11.398c0-5.365,0.932-9.226,2.799-11.586C145.253,519.803,147.405,518.83,150.165,518.83z
							 M150.165,523.359c-0.66,0-1.248,0.21-1.77,0.634c-0.518,0.42-0.918,1.174-1.203,2.263c-0.375,1.41-0.564,3.79-0.564,7.134
							c0,3.343,0.17,5.641,0.506,6.893c0.336,1.247,0.76,2.08,1.271,2.495c0.512,0.416,1.1,0.624,1.76,0.624s1.25-0.212,1.77-0.632
							c0.518-0.423,0.92-1.178,1.205-2.265c0.375-1.4,0.564-3.772,0.564-7.115c0-3.344-0.17-5.642-0.508-6.893
							c-0.336-1.249-0.76-2.084-1.271-2.504C151.413,523.569,150.825,523.359,150.165,523.359z"/>
						<path fill="#FFFFFF" d="M172.306,518.83c2.76,0,4.916,0.983,6.473,2.955c1.852,2.332,2.779,6.2,2.779,11.604
							c0,5.393-0.934,9.264-2.799,11.623c-1.541,1.941-3.693,2.916-6.453,2.916c-2.773,0-5.008-1.066-6.705-3.198
							c-1.699-2.132-2.547-5.93-2.547-11.398c0-5.365,0.934-9.226,2.797-11.586C167.396,519.803,169.546,518.83,172.306,518.83z
							 M172.306,523.359c-0.662,0-1.25,0.21-1.77,0.634c-0.518,0.42-0.918,1.174-1.207,2.263c-0.373,1.41-0.563,3.79-0.563,7.134
							c0,3.343,0.17,5.641,0.506,6.893c0.338,1.247,0.764,2.08,1.273,2.495c0.512,0.416,1.098,0.624,1.76,0.624
							s1.248-0.212,1.77-0.632c0.52-0.423,0.918-1.178,1.203-2.265c0.375-1.4,0.564-3.772,0.564-7.115
							c0-3.344-0.17-5.642-0.504-6.893c-0.338-1.249-0.762-2.084-1.273-2.504C173.554,523.569,172.968,523.359,172.306,523.359z"/>
						<path fill="#FFFFFF" d="M185.327,540.854l5.289-0.583c0.129,1.077,0.467,1.873,1.012,2.391
							c0.543,0.517,1.264,0.778,2.156,0.778c1.127,0,2.086-0.519,2.877-1.556s1.297-3.188,1.516-6.453
							c-1.373,1.594-3.09,2.391-5.15,2.391c-2.242,0-4.176-0.867-5.801-2.594c-1.629-1.732-2.441-3.984-2.441-6.756
							c0-2.889,0.859-5.217,2.576-6.991c1.717-1.764,3.902-2.65,6.561-2.65c2.891,0,5.262,1.121,7.113,3.352
							c1.854,2.239,2.779,5.912,2.779,11.033c0,5.21-0.965,8.967-2.895,11.274c-1.932,2.302-4.445,3.462-7.543,3.462
							c-2.23,0-4.029-0.593-5.402-1.783C186.599,544.987,185.716,543.212,185.327,540.854z M197.692,528.919
							c0-1.761-0.404-3.13-1.215-4.102c-0.813-0.973-1.746-1.458-2.809-1.458c-1.012,0-1.852,0.399-2.52,1.193
							c-0.664,0.802-0.998,2.104-0.998,3.919c0,1.838,0.361,3.191,1.088,4.05c0.723,0.864,1.631,1.296,2.721,1.296
							c1.049,0,1.934-0.416,2.654-1.244C197.331,531.744,197.692,530.523,197.692,528.919z"/>
					</g>
				</g>
			</g>
			<g>
				<g>
					<path fill="#FFFFFF" d="M798.03,631.162c-52.219,0-94.545-42.331-94.545-94.547c0-52.214,42.326-94.546,94.545-94.546
						c52.225,0,94.551,42.332,94.551,94.546C892.581,588.831,850.255,631.162,798.03,631.162z M865.71,536.615
						c0-37.374-30.301-67.674-67.68-67.674c-37.375,0-67.676,30.3-67.676,67.674c0,37.382,30.301,67.676,67.676,67.676
						C835.409,604.291,865.71,573.997,865.71,536.615z"/>
					<g>
						<path fill="#FFFFFF" d="M773.892,542.369v5.075h-19.146c0.205-1.918,0.828-3.736,1.865-5.451
							c1.035-1.718,3.086-3.997,6.143-6.835c2.461-2.294,3.971-3.849,4.529-4.666c0.752-1.126,1.125-2.243,1.125-3.343
							c0-1.217-0.326-2.153-0.979-2.807c-0.656-0.657-1.561-0.983-2.713-0.983c-1.143,0-2.047,0.342-2.721,1.03
							c-0.676,0.688-1.064,1.827-1.166,3.421l-5.443-0.544c0.322-3.005,1.342-5.163,3.051-6.473c1.711-1.31,3.85-1.964,6.418-1.964
							c2.811,0,5.02,0.758,6.625,2.274c1.609,1.516,2.412,3.401,2.412,5.656c0,1.283-0.229,2.504-0.693,3.662
							c-0.457,1.163-1.188,2.375-2.186,3.647c-0.658,0.843-1.85,2.053-3.576,3.635c-1.723,1.582-2.814,2.631-3.275,3.148
							c-0.459,0.517-0.832,1.021-1.115,1.516H773.892z"/>
						<path fill="#FFFFFF" d="M786.815,518.83c2.762,0,4.92,0.983,6.475,2.955c1.854,2.332,2.779,6.2,2.779,11.604
							c0,5.393-0.934,9.264-2.799,11.623c-1.543,1.941-3.693,2.916-6.455,2.916c-2.771,0-5.008-1.066-6.703-3.198
							c-1.697-2.132-2.549-5.93-2.549-11.398c0-5.365,0.934-9.226,2.799-11.586C781.905,519.803,784.058,518.83,786.815,518.83z
							 M786.815,523.359c-0.66,0-1.248,0.21-1.768,0.634c-0.518,0.42-0.918,1.174-1.205,2.263c-0.377,1.41-0.563,3.79-0.563,7.134
							c0,3.343,0.166,5.641,0.506,6.893c0.336,1.247,0.762,2.08,1.273,2.495c0.51,0.416,1.096,0.624,1.756,0.624
							c0.662,0,1.252-0.212,1.771-0.632c0.52-0.423,0.918-1.178,1.203-2.265c0.375-1.4,0.564-3.772,0.564-7.115
							c0-3.344-0.17-5.642-0.504-6.893c-0.338-1.249-0.762-2.084-1.273-2.504C788.063,523.569,787.478,523.359,786.815,523.359z"/>
						<path fill="#FFFFFF" d="M813.7,547.444h-5.463v-20.586c-1.996,1.866-4.348,3.245-7.055,4.141v-4.958
							c1.424-0.467,2.973-1.348,4.643-2.655c1.674-1.298,2.82-2.817,3.443-4.556h4.432V547.444z"/>
						<path fill="#FFFFFF" d="M831.097,518.83c2.76,0,4.918,0.983,6.475,2.955c1.85,2.332,2.777,6.2,2.777,11.604
							c0,5.393-0.932,9.264-2.799,11.623c-1.541,1.941-3.693,2.916-6.453,2.916c-2.773,0-5.008-1.066-6.707-3.198
							c-1.695-2.132-2.547-5.93-2.547-11.398c0-5.365,0.934-9.226,2.799-11.586C826.185,519.803,828.339,518.83,831.097,518.83z
							 M831.097,523.359c-0.66,0-1.252,0.21-1.768,0.634c-0.521,0.42-0.922,1.174-1.205,2.263c-0.377,1.41-0.563,3.79-0.563,7.134
							c0,3.343,0.166,5.641,0.504,6.893c0.336,1.247,0.762,2.08,1.271,2.495c0.512,0.416,1.1,0.624,1.76,0.624
							s1.252-0.212,1.77-0.632c0.52-0.423,0.92-1.178,1.203-2.265c0.377-1.4,0.564-3.772,0.564-7.115
							c0-3.344-0.168-5.642-0.506-6.893c-0.334-1.249-0.762-2.084-1.271-2.504C832.343,523.569,831.757,523.359,831.097,523.359z"/>
					</g>
				</g>
			</g>
			<g>
				<rect y="519.563" fill="#FFFFFF" width="77.854" height="29.112"/>
				<rect x="240.622" y="519.563" fill="#FFFFFF" width="473.576" height="29.112"/>
				<rect x="876.968" y="519.563" fill="#FFFFFF" width="23.032" height="29.112"/>
			</g>
		</g>
	</g>
</g>
<g id="_x30_1" display="none">
	<g display="inline">
		<g>
			<path fill="#FFFFFF" d="M297.525,281.256h42.92c8.496,0,14.832,0.355,19.006,1.062c4.175,0.708,7.91,2.186,11.206,4.431
				c3.296,2.247,6.042,5.237,8.24,8.972s3.296,7.923,3.296,12.561c0,5.03-1.355,9.644-4.065,13.843
				c-2.71,4.2-6.385,7.35-11.023,9.448c6.542,1.904,11.572,5.152,15.088,9.741c3.516,4.59,5.273,9.986,5.273,16.187
				c0,4.883-1.135,9.631-3.406,14.244c-2.271,4.615-5.372,8.303-9.302,11.061c-3.931,2.76-8.778,4.457-14.539,5.09
				c-3.614,0.393-12.33,0.635-26.147,0.732h-36.548V281.256z M319.205,299.127v24.829h14.209c8.447,0,13.696-0.121,15.747-0.366
				c3.71-0.439,6.628-1.721,8.752-3.845s3.186-4.918,3.186-8.386c0-3.32-0.916-6.017-2.747-8.093
				c-1.831-2.075-4.554-3.333-8.167-3.772c-2.149-0.244-8.326-0.366-18.53-0.366H319.205z M319.205,341.828v28.711h20.068
				c7.812,0,12.768-0.221,14.868-0.66c3.223-0.586,5.847-2.014,7.874-4.285c2.025-2.27,3.04-5.309,3.04-9.117
				c0-3.223-0.782-5.958-2.344-8.204c-1.563-2.245-3.821-3.882-6.775-4.907c-2.955-1.025-9.364-1.538-19.226-1.538H319.205z"/>
			<path fill="#FFFFFF" d="M474.479,349.152l21.021,6.665c-3.223,11.719-8.582,20.424-16.078,26.111
				c-7.494,5.689-17.004,8.533-28.528,8.533c-14.258,0-25.977-4.871-35.156-14.613c-9.181-9.74-13.77-23.059-13.77-39.953
				c0-17.871,4.614-31.75,13.843-41.638s21.361-14.832,36.401-14.832c13.135,0,23.805,3.882,32.008,11.646
				c4.881,4.59,8.543,11.182,10.986,19.775l-21.461,5.127c-1.27-5.566-3.918-9.961-7.947-13.184
				c-4.027-3.223-8.924-4.834-14.684-4.834c-7.96,0-14.418,2.856-19.374,8.569c-4.957,5.713-7.434,14.967-7.434,27.759
				c0,13.575,2.441,23.244,7.324,29.003c4.882,5.762,11.23,8.643,19.043,8.643c5.76,0,10.717-1.83,14.868-5.492
				S472.672,357.014,474.479,349.152z"/>
			<path fill="#FFFFFF" d="M582.805,349.152l21.02,6.665c-3.223,11.719-8.582,20.424-16.076,26.111
				c-7.496,5.689-17.004,8.533-28.527,8.533c-14.258,0-25.977-4.871-35.156-14.613c-9.182-9.74-13.77-23.059-13.77-39.953
				c0-17.871,4.613-31.75,13.842-41.638s21.361-14.832,36.402-14.832c13.135,0,23.803,3.882,32.006,11.646
				c4.883,4.59,8.545,11.182,10.986,19.775l-21.459,5.127c-1.271-5.566-3.92-9.961-7.947-13.184
				c-4.029-3.223-8.924-4.834-14.686-4.834c-7.959,0-14.416,2.856-19.373,8.569c-4.955,5.713-7.434,14.967-7.434,27.759
				c0,13.575,2.441,23.244,7.324,29.003c4.883,5.762,11.23,8.643,19.043,8.643c5.762,0,10.719-1.83,14.869-5.492
				C578.018,362.775,580.998,357.014,582.805,349.152z"/>
		</g>
		<g>
			<path fill="#FFFFFF" d="M296.176,403.912h6.549c1.296,0,2.263,0.053,2.9,0.162c0.637,0.107,1.207,0.332,1.71,0.676
				c0.503,0.342,0.922,0.799,1.257,1.369c0.335,0.568,0.503,1.209,0.503,1.916c0,0.768-0.207,1.471-0.621,2.113
				c-0.414,0.641-0.974,1.121-1.682,1.441c0.998,0.289,1.766,0.785,2.302,1.486c0.536,0.699,0.805,1.523,0.805,2.469
				c0,0.746-0.173,1.471-0.52,2.174c-0.346,0.705-0.819,1.268-1.419,1.688c-0.6,0.422-1.339,0.68-2.218,0.777
				c-0.551,0.061-1.881,0.098-3.99,0.111h-5.577V403.912z M299.484,406.639v3.789h2.168c1.289,0,2.09-0.02,2.403-0.057
				c0.566-0.066,1.011-0.264,1.335-0.586c0.324-0.324,0.486-0.752,0.486-1.281c0-0.506-0.14-0.918-0.419-1.234
				c-0.279-0.316-0.695-0.508-1.246-0.576c-0.328-0.037-1.271-0.055-2.828-0.055H299.484z M299.484,413.154v4.381h3.063
				c1.192,0,1.948-0.033,2.269-0.102c0.492-0.088,0.892-0.307,1.202-0.652c0.309-0.348,0.464-0.811,0.464-1.393
				c0-0.492-0.12-0.908-0.358-1.252c-0.238-0.342-0.583-0.592-1.034-0.748s-1.429-0.234-2.934-0.234H299.484z"/>
			<path fill="#FFFFFF" d="M320.484,420.295v-1.777c-0.432,0.635-1,1.133-1.705,1.498s-1.447,0.549-2.229,0.549
				c-0.797,0-1.513-0.176-2.146-0.525c-0.633-0.352-1.091-0.842-1.375-1.477c-0.283-0.633-0.425-1.508-0.425-2.625v-7.512h3.141
				v5.455c0,1.668,0.058,2.691,0.173,3.066c0.115,0.377,0.326,0.676,0.631,0.895c0.306,0.221,0.693,0.33,1.162,0.33
				c0.537,0,1.017-0.146,1.442-0.441s0.715-0.66,0.872-1.096c0.157-0.436,0.235-1.502,0.235-3.201v-5.008h3.141v11.869H320.484z"/>
			<path fill="#FFFFFF" d="M325.547,416.908l3.151-0.48c0.134,0.611,0.406,1.076,0.816,1.393s0.983,0.475,1.721,0.475
				c0.812,0,1.423-0.148,1.833-0.447c0.275-0.209,0.414-0.488,0.414-0.838c0-0.238-0.075-0.436-0.224-0.592
				c-0.157-0.15-0.507-0.287-1.051-0.414c-2.533-0.559-4.139-1.068-4.817-1.531c-0.938-0.641-1.408-1.531-1.408-2.672
				c0-1.027,0.406-1.893,1.218-2.592c0.812-0.701,2.071-1.051,3.778-1.051c1.624,0,2.831,0.264,3.621,0.793
				c0.79,0.529,1.333,1.313,1.631,2.348l-2.961,0.547c-0.127-0.461-0.367-0.814-0.721-1.061c-0.354-0.246-0.858-0.369-1.514-0.369
				c-0.827,0-1.419,0.115-1.777,0.346c-0.239,0.164-0.358,0.377-0.358,0.637c0,0.225,0.104,0.414,0.313,0.57
				c0.283,0.209,1.261,0.504,2.934,0.883c1.673,0.381,2.841,0.846,3.504,1.398c0.656,0.559,0.983,1.336,0.983,2.334
				c0,1.09-0.455,2.023-1.363,2.807c-0.909,0.781-2.254,1.174-4.035,1.174c-1.617,0-2.896-0.328-3.839-0.984
				C326.454,418.924,325.838,418.033,325.547,416.908z"/>
			<path fill="#FFFFFF" d="M339.383,406.816v-2.904h3.14v2.904H339.383z M339.383,420.295v-11.869h3.14v11.869H339.383z"/>
			<path fill="#FFFFFF" d="M356.539,420.295h-3.141v-6.057c0-1.281-0.067-2.111-0.201-2.486c-0.134-0.377-0.352-0.67-0.654-0.879
				c-0.302-0.207-0.665-0.313-1.089-0.313c-0.544,0-1.032,0.15-1.464,0.447c-0.432,0.299-0.728,0.693-0.888,1.186
				c-0.161,0.49-0.24,1.4-0.24,2.727v5.375h-3.141v-11.869h2.917v1.744c1.036-1.342,2.339-2.012,3.912-2.012
				c0.693,0,1.326,0.125,1.9,0.375s1.008,0.568,1.302,0.955c0.294,0.387,0.499,0.826,0.614,1.318
				c0.116,0.492,0.173,1.195,0.173,2.113V420.295z"/>
			<path fill="#FFFFFF" d="M366.597,416.518l3.129,0.525c-0.402,1.148-1.038,2.021-1.905,2.621c-0.868,0.6-1.954,0.9-3.258,0.9
				c-2.063,0-3.591-0.676-4.582-2.023c-0.782-1.08-1.173-2.443-1.173-4.09c0-1.969,0.514-3.508,1.542-4.623
				c1.028-1.113,2.329-1.67,3.901-1.67c1.766,0,3.159,0.582,4.18,1.748c1.021,1.168,1.509,2.953,1.464,5.359h-7.868
				c0.022,0.932,0.275,1.656,0.76,2.174s1.088,0.777,1.811,0.777c0.492,0,0.905-0.135,1.241-0.402
				C366.172,417.547,366.426,417.113,366.597,416.518z M366.776,413.344c-0.022-0.908-0.257-1.6-0.704-2.072
				c-0.447-0.475-0.991-0.711-1.631-0.711c-0.686,0-1.252,0.25-1.699,0.75c-0.447,0.498-0.667,1.176-0.66,2.033H366.776z"/>
			<path fill="#FFFFFF" d="M371.347,416.908l3.151-0.48c0.134,0.611,0.406,1.076,0.816,1.393s0.983,0.475,1.721,0.475
				c0.812,0,1.423-0.148,1.833-0.447c0.275-0.209,0.414-0.488,0.414-0.838c0-0.238-0.075-0.436-0.224-0.592
				c-0.157-0.15-0.507-0.287-1.051-0.414c-2.533-0.559-4.139-1.068-4.817-1.531c-0.938-0.641-1.408-1.531-1.408-2.672
				c0-1.027,0.406-1.893,1.218-2.592c0.812-0.701,2.071-1.051,3.778-1.051c1.624,0,2.831,0.264,3.621,0.793
				c0.79,0.529,1.333,1.313,1.631,2.348l-2.961,0.547c-0.127-0.461-0.367-0.814-0.721-1.061c-0.354-0.246-0.858-0.369-1.514-0.369
				c-0.827,0-1.419,0.115-1.777,0.346c-0.239,0.164-0.358,0.377-0.358,0.637c0,0.225,0.104,0.414,0.313,0.57
				c0.283,0.209,1.261,0.504,2.934,0.883c1.673,0.381,2.841,0.846,3.504,1.398c0.656,0.559,0.983,1.336,0.983,2.334
				c0,1.09-0.455,2.023-1.363,2.807c-0.909,0.781-2.254,1.174-4.035,1.174c-1.617,0-2.896-0.328-3.839-0.984
				C372.254,418.924,371.638,418.033,371.347,416.908z"/>
			<path fill="#FFFFFF" d="M384.077,416.908l3.151-0.48c0.134,0.611,0.406,1.076,0.816,1.393s0.983,0.475,1.721,0.475
				c0.812,0,1.423-0.148,1.833-0.447c0.275-0.209,0.414-0.488,0.414-0.838c0-0.238-0.075-0.436-0.224-0.592
				c-0.157-0.15-0.507-0.287-1.051-0.414c-2.533-0.559-4.139-1.068-4.817-1.531c-0.938-0.641-1.408-1.531-1.408-2.672
				c0-1.027,0.406-1.893,1.218-2.592c0.812-0.701,2.071-1.051,3.778-1.051c1.624,0,2.831,0.264,3.621,0.793
				c0.79,0.529,1.333,1.313,1.631,2.348l-2.961,0.547c-0.127-0.461-0.367-0.814-0.721-1.061c-0.354-0.246-0.858-0.369-1.514-0.369
				c-0.827,0-1.419,0.115-1.777,0.346c-0.239,0.164-0.358,0.377-0.358,0.637c0,0.225,0.104,0.414,0.313,0.57
				c0.283,0.209,1.261,0.504,2.934,0.883c1.673,0.381,2.841,0.846,3.504,1.398c0.656,0.559,0.983,1.336,0.983,2.334
				c0,1.09-0.455,2.023-1.363,2.807c-0.909,0.781-2.254,1.174-4.035,1.174c-1.617,0-2.896-0.328-3.839-0.984
				C384.983,418.924,384.367,418.033,384.077,416.908z"/>
			<path fill="#FFFFFF" d="M414.777,414.271l3.208,1.018c-0.492,1.787-1.31,3.115-2.453,3.984c-1.144,0.867-2.595,1.301-4.353,1.301
				c-2.176,0-3.964-0.742-5.365-2.229s-2.101-3.52-2.101-6.098c0-2.727,0.704-4.844,2.112-6.354c1.408-1.508,3.26-2.264,5.555-2.264
				c2.004,0,3.632,0.594,4.884,1.777c0.745,0.701,1.304,1.707,1.677,3.018l-3.275,0.783c-0.194-0.85-0.598-1.52-1.212-2.012
				s-1.362-0.738-2.241-0.738c-1.215,0-2.2,0.436-2.957,1.309c-0.756,0.871-1.134,2.283-1.134,4.234
				c0,2.072,0.373,3.547,1.118,4.426c0.745,0.881,1.714,1.32,2.906,1.32c0.879,0,1.635-0.279,2.269-0.84
				C414.047,416.35,414.501,415.471,414.777,414.271z"/>
			<path fill="#FFFFFF" d="M420.075,414.193c0-1.043,0.257-2.053,0.771-3.029c0.514-0.975,1.242-1.721,2.185-2.234
				c0.942-0.514,1.995-0.771,3.157-0.771c1.795,0,3.267,0.582,4.415,1.748c1.147,1.168,1.721,2.641,1.721,4.422
				c0,1.795-0.58,3.283-1.738,4.465c-1.159,1.18-2.617,1.771-4.375,1.771c-1.088,0-2.125-0.246-3.113-0.738
				s-1.738-1.213-2.252-2.162C420.332,416.713,420.075,415.557,420.075,414.193z M423.294,414.361c0,1.178,0.279,2.078,0.838,2.705
				c0.559,0.625,1.248,0.938,2.068,0.938c0.819,0,1.507-0.313,2.062-0.938c0.555-0.627,0.833-1.535,0.833-2.729
				c0-1.162-0.278-2.057-0.833-2.682c-0.555-0.625-1.243-0.939-2.062-0.939c-0.82,0-1.509,0.314-2.068,0.939
				C423.573,412.281,423.294,413.184,423.294,414.361z"/>
			<path fill="#FFFFFF" d="M445.579,420.295h-3.141v-6.057c0-1.281-0.067-2.111-0.201-2.486c-0.134-0.377-0.352-0.67-0.654-0.879
				c-0.302-0.207-0.665-0.313-1.089-0.313c-0.544,0-1.032,0.15-1.464,0.447c-0.432,0.299-0.728,0.693-0.888,1.186
				c-0.161,0.49-0.24,1.4-0.24,2.727v5.375h-3.141v-11.869h2.917v1.744c1.036-1.342,2.339-2.012,3.912-2.012
				c0.693,0,1.326,0.125,1.9,0.375c0.573,0.25,1.008,0.568,1.302,0.955c0.295,0.387,0.499,0.826,0.615,1.318
				c0.115,0.492,0.173,1.195,0.173,2.113V420.295z"/>
			<path fill="#FFFFFF" d="M459.561,420.295h-3.141v-6.057c0-1.281-0.066-2.111-0.201-2.486c-0.135-0.377-0.352-0.67-0.654-0.879
				c-0.301-0.207-0.664-0.313-1.09-0.313c-0.543,0-1.031,0.15-1.463,0.447c-0.432,0.299-0.729,0.693-0.889,1.186
				c-0.16,0.49-0.24,1.4-0.24,2.727v5.375h-3.142v-11.869h2.917v1.744c1.037-1.342,2.34-2.012,3.912-2.012
				c0.693,0,1.326,0.125,1.9,0.375s1.008,0.568,1.303,0.955c0.293,0.387,0.498,0.826,0.613,1.318s0.174,1.195,0.174,2.113V420.295z"
				/>
			<path fill="#FFFFFF" d="M469.619,416.518l3.129,0.525c-0.402,1.148-1.037,2.021-1.904,2.621c-0.869,0.6-1.955,0.9-3.258,0.9
				c-2.064,0-3.592-0.676-4.582-2.023c-0.783-1.08-1.174-2.443-1.174-4.09c0-1.969,0.514-3.508,1.541-4.623
				c1.029-1.113,2.328-1.67,3.9-1.67c1.766,0,3.16,0.582,4.18,1.748c1.021,1.168,1.51,2.953,1.465,5.359h-7.867
				c0.021,0.932,0.275,1.656,0.76,2.174s1.088,0.777,1.811,0.777c0.492,0,0.904-0.135,1.24-0.402S469.447,417.113,469.619,416.518z
				 M469.799,413.344c-0.023-0.908-0.258-1.6-0.705-2.072c-0.447-0.475-0.99-0.711-1.631-0.711c-0.686,0-1.252,0.25-1.699,0.75
				c-0.447,0.498-0.668,1.176-0.66,2.033H469.799z"/>
			<path fill="#FFFFFF" d="M485.824,411.936l-3.096,0.559c-0.104-0.617-0.34-1.084-0.709-1.396s-0.848-0.469-1.438-0.469
				c-0.781,0-1.406,0.27-1.871,0.809c-0.465,0.541-0.699,1.445-0.699,2.711c0,1.408,0.236,2.402,0.711,2.984
				c0.473,0.58,1.107,0.871,1.904,0.871c0.596,0,1.084-0.17,1.465-0.508c0.379-0.34,0.648-0.922,0.805-1.75l3.084,0.525
				c-0.32,1.416-0.936,2.486-1.844,3.209s-2.127,1.084-3.654,1.084c-1.736,0-3.121-0.549-4.152-1.645
				c-1.031-1.094-1.547-2.611-1.547-4.549c0-1.959,0.518-3.484,1.553-4.576s2.436-1.637,4.203-1.637
				c1.445,0,2.594,0.311,3.447,0.934C484.84,409.713,485.451,410.662,485.824,411.936z"/>
			<path fill="#FFFFFF" d="M493.648,408.426v2.504h-2.146v4.783c0,0.969,0.02,1.533,0.061,1.693s0.135,0.293,0.279,0.396
				c0.146,0.105,0.322,0.156,0.531,0.156c0.291,0,0.713-0.1,1.264-0.301l0.268,2.436c-0.73,0.313-1.557,0.471-2.48,0.471
				c-0.566,0-1.076-0.096-1.531-0.285c-0.455-0.191-0.787-0.436-1-0.738c-0.213-0.301-0.359-0.709-0.441-1.225
				c-0.068-0.363-0.102-1.102-0.102-2.213v-5.174h-1.441v-2.504h1.441v-2.357l3.152-1.834v4.191H493.648z"/>
			<path fill="#FFFFFF" d="M512.691,414.271l3.209,1.018c-0.492,1.787-1.311,3.115-2.453,3.984
				c-1.145,0.867-2.596,1.301-4.354,1.301c-2.176,0-3.965-0.742-5.365-2.229s-2.102-3.52-2.102-6.098
				c0-2.727,0.705-4.844,2.113-6.354c1.408-1.508,3.26-2.264,5.555-2.264c2.004,0,3.631,0.594,4.883,1.777
				c0.746,0.701,1.305,1.707,1.678,3.018l-3.275,0.783c-0.193-0.85-0.598-1.52-1.213-2.012s-1.361-0.738-2.24-0.738
				c-1.215,0-2.199,0.436-2.957,1.309c-0.756,0.871-1.133,2.283-1.133,4.234c0,2.072,0.371,3.547,1.117,4.426
				c0.744,0.881,1.713,1.32,2.906,1.32c0.879,0,1.635-0.279,2.268-0.84C511.961,416.35,512.416,415.471,512.691,414.271z"/>
			<path fill="#FFFFFF" d="M521.846,403.912v6.023c1.012-1.186,2.223-1.777,3.631-1.777c0.723,0,1.375,0.135,1.957,0.402
				c0.58,0.268,1.018,0.611,1.313,1.027c0.295,0.418,0.496,0.881,0.604,1.387s0.162,1.293,0.162,2.357v6.963h-3.141v-6.27
				c0-1.244-0.059-2.033-0.178-2.369c-0.121-0.336-0.33-0.602-0.633-0.799c-0.301-0.197-0.68-0.297-1.135-0.297
				c-0.521,0-0.986,0.127-1.396,0.381s-0.709,0.635-0.898,1.145c-0.191,0.512-0.285,1.266-0.285,2.264v5.945h-3.141v-16.383H521.846
				z"/>
			<path fill="#FFFFFF" d="M532.697,406.816v-2.904h3.141v2.904H532.697z M532.697,420.295v-11.869h3.141v11.869H532.697z"/>
			<path fill="#FFFFFF" d="M549.854,420.295h-3.141v-6.057c0-1.281-0.068-2.111-0.201-2.486c-0.135-0.377-0.354-0.67-0.654-0.879
				c-0.303-0.207-0.666-0.313-1.09-0.313c-0.545,0-1.031,0.15-1.465,0.447c-0.432,0.299-0.729,0.693-0.889,1.186
				c-0.16,0.49-0.24,1.4-0.24,2.727v5.375h-3.141v-11.869h2.918v1.744c1.035-1.342,2.34-2.012,3.912-2.012
				c0.691,0,1.326,0.125,1.898,0.375c0.574,0.25,1.008,0.568,1.303,0.955s0.5,0.826,0.615,1.318s0.174,1.195,0.174,2.113V420.295z"
				/>
			<path fill="#FFFFFF" d="M555.385,412.047l-2.85-0.514c0.32-1.146,0.871-1.996,1.654-2.549c0.781-0.551,1.943-0.826,3.486-0.826
				c1.4,0,2.443,0.166,3.129,0.498c0.686,0.33,1.168,0.752,1.447,1.262c0.279,0.512,0.42,1.447,0.42,2.811l-0.033,3.666
				c0,1.043,0.051,1.813,0.15,2.309c0.102,0.496,0.289,1.025,0.564,1.592h-3.107c-0.082-0.209-0.182-0.518-0.301-0.928
				c-0.053-0.186-0.09-0.309-0.113-0.369c-0.535,0.523-1.109,0.914-1.721,1.174c-0.611,0.262-1.262,0.393-1.955,0.393
				c-1.223,0-2.186-0.332-2.889-0.996c-0.705-0.662-1.057-1.5-1.057-2.514c0-0.672,0.16-1.27,0.48-1.795s0.77-0.928,1.348-1.207
				c0.576-0.279,1.408-0.523,2.496-0.73c1.469-0.275,2.486-0.533,3.053-0.771v-0.313c0-0.604-0.15-1.035-0.447-1.291
				c-0.299-0.258-0.861-0.387-1.688-0.387c-0.559,0-0.996,0.111-1.309,0.33C555.832,411.111,555.578,411.496,555.385,412.047z
				 M559.588,414.596c-0.402,0.135-1.041,0.295-1.912,0.48s-1.441,0.369-1.709,0.547c-0.41,0.291-0.615,0.66-0.615,1.107
				c0,0.439,0.164,0.82,0.492,1.141c0.326,0.32,0.744,0.48,1.252,0.48c0.564,0,1.105-0.188,1.619-0.561
				c0.381-0.281,0.631-0.629,0.75-1.039c0.082-0.268,0.123-0.777,0.123-1.531V414.596z"/>
			<path fill="#FFFFFF" d="M572.049,420.295v-16.383h3.309v16.383H572.049z"/>
			<path fill="#FFFFFF" d="M589.283,420.295h-3.141v-6.057c0-1.281-0.068-2.111-0.201-2.486c-0.135-0.377-0.354-0.67-0.654-0.879
				c-0.303-0.207-0.666-0.313-1.09-0.313c-0.545,0-1.031,0.15-1.465,0.447c-0.432,0.299-0.729,0.693-0.889,1.186
				c-0.16,0.49-0.24,1.4-0.24,2.727v5.375h-3.141v-11.869h2.918v1.744c1.035-1.342,2.34-2.012,3.912-2.012
				c0.691,0,1.326,0.125,1.898,0.375c0.574,0.25,1.008,0.568,1.303,0.955s0.5,0.826,0.615,1.318s0.174,1.195,0.174,2.113V420.295z"
				/>
			<path fill="#FFFFFF" d="M602.816,411.936l-3.096,0.559c-0.104-0.617-0.34-1.084-0.709-1.396s-0.848-0.469-1.438-0.469
				c-0.781,0-1.406,0.27-1.871,0.809c-0.465,0.541-0.699,1.445-0.699,2.711c0,1.408,0.236,2.402,0.711,2.984
				c0.473,0.58,1.107,0.871,1.904,0.871c0.596,0,1.084-0.17,1.465-0.508c0.379-0.34,0.648-0.922,0.805-1.75l3.084,0.525
				c-0.32,1.416-0.936,2.486-1.844,3.209s-2.127,1.084-3.654,1.084c-1.736,0-3.121-0.549-4.152-1.645
				c-1.031-1.094-1.547-2.611-1.547-4.549c0-1.959,0.518-3.484,1.553-4.576s2.436-1.637,4.203-1.637
				c1.445,0,2.594,0.311,3.447,0.934C601.832,409.713,602.443,410.662,602.816,411.936z"/>
		</g>
	</g>
</g>
</svg>
