<?xml version="1.0" encoding="utf-8"?>
<!-- Generator: Adobe Illustrator 16.0.0, SVG Export Plug-In . SVG Version: 6.00 Build 0)  -->
<!DOCTYPE svg PUBLIC "-//W3C//DTD SVG 1.1//EN" "http://www.w3.org/Graphics/SVG/1.1/DTD/svg11.dtd">
<svg version="1.1" xmlns="http://www.w3.org/2000/svg" xmlns:xlink="http://www.w3.org/1999/xlink" x="0px" y="0px" width="900px"
	 height="700px" viewBox="0 0 900 700" enable-background="new 0 0 900 700" xml:space="preserve">
<g id="BG">
	<rect fill="#0672D0" width="900" height="700"/>
</g>
<g id="_x30_2">
	<g>
		<g id="_x32_012">
			<polygon fill="#FFFFFF" points="480.418,313.999 507.561,246.145 451.945,246.145 			"/>
			<path fill="#FFFFFF" d="M479.758,61.524c52.219,0,94.545,42.328,94.545,94.546c0,52.216-42.326,94.547-94.545,94.547
				s-94.545-42.331-94.545-94.547C385.213,103.853,427.539,61.524,479.758,61.524z M412.08,156.07
				c0,37.375,30.303,67.675,67.678,67.675s67.674-30.3,67.674-67.675c0-37.378-30.299-67.675-67.674-67.675
				S412.08,118.692,412.08,156.07z"/>
			<g>
				<path fill="#FFFFFF" d="M455.611,166.823v5.075h-19.143c0.205-1.918,0.828-3.736,1.865-5.451
					c1.033-1.718,3.086-3.997,6.145-6.835c2.459-2.294,3.967-3.849,4.521-4.666c0.758-1.126,1.131-2.243,1.131-3.343
					c0-1.217-0.326-2.153-0.979-2.807c-0.658-0.657-1.563-0.983-2.717-0.983c-1.139,0-2.045,0.342-2.719,1.03
					c-0.674,0.688-1.063,1.827-1.166,3.421l-5.445-0.544c0.326-3.005,1.344-5.163,3.059-6.473c1.709-1.31,3.848-1.964,6.41-1.964
					c2.814,0,5.021,0.758,6.627,2.274c1.607,1.516,2.41,3.401,2.41,5.656c0,1.283-0.227,2.504-0.689,3.662
					c-0.461,1.163-1.188,2.375-2.188,3.647c-0.66,0.843-1.85,2.053-3.574,3.635c-1.727,1.582-2.818,2.631-3.275,3.148
					c-0.461,0.517-0.832,1.021-1.121,1.516H455.611z"/>
				<path fill="#FFFFFF" d="M468.543,143.284c2.76,0,4.912,0.983,6.467,2.955c1.857,2.332,2.785,6.2,2.785,11.604
					c0,5.393-0.932,9.264-2.801,11.623c-1.543,1.941-3.691,2.916-6.451,2.916c-2.777,0-5.014-1.066-6.713-3.198
					c-1.691-2.132-2.541-5.93-2.541-11.398c0-5.365,0.934-9.226,2.799-11.586C463.627,144.257,465.781,143.284,468.543,143.284z
					 M468.543,147.813c-0.662,0-1.254,0.21-1.775,0.634c-0.518,0.42-0.918,1.174-1.205,2.263c-0.373,1.41-0.561,3.79-0.561,7.134
					c0,3.343,0.168,5.641,0.506,6.893c0.334,1.247,0.762,2.08,1.27,2.495c0.512,0.416,1.104,0.624,1.766,0.624
					c0.66,0,1.246-0.212,1.764-0.632c0.521-0.423,0.92-1.178,1.205-2.265c0.377-1.4,0.568-3.772,0.568-7.115
					c0-3.344-0.172-5.642-0.506-6.893c-0.338-1.249-0.762-2.084-1.275-2.504C469.785,148.023,469.203,147.813,468.543,147.813z"/>
				<path fill="#FFFFFF" d="M495.422,171.898h-5.461v-20.586c-1.996,1.866-4.352,3.245-7.059,4.141v-4.958
					c1.426-0.467,2.979-1.348,4.65-2.655c1.672-1.298,2.813-2.817,3.436-4.556h4.434V171.898z"/>
				<path fill="#FFFFFF" d="M522.033,166.823v5.075h-19.15c0.211-1.918,0.83-3.736,1.869-5.451c1.039-1.718,3.086-3.997,6.141-6.835
					c2.467-2.294,3.975-3.849,4.533-4.666c0.752-1.126,1.127-2.243,1.127-3.343c0-1.217-0.326-2.153-0.982-2.807
					c-0.656-0.657-1.559-0.983-2.711-0.983c-1.145,0-2.049,0.342-2.721,1.03c-0.676,0.688-1.064,1.827-1.168,3.421l-5.443-0.544
					c0.324-3.005,1.342-5.163,3.051-6.473s3.848-1.964,6.412-1.964c2.818,0,5.023,0.758,6.633,2.274
					c1.605,1.516,2.41,3.401,2.41,5.656c0,1.283-0.234,2.504-0.691,3.662c-0.459,1.163-1.189,2.375-2.184,3.647
					c-0.662,0.843-1.855,2.053-3.576,3.635c-1.727,1.582-2.816,2.631-3.279,3.148c-0.463,0.517-0.832,1.021-1.115,1.516H522.033z"/>
			</g>
		</g>
		<g id="_x30_9-11">
			<g>
				<rect y="144.017" fill="#FFFFFF" width="395.307" height="29.112"/>
			</g>
		</g>
		<g>
			<polygon fill="#FFFFFF" points="583.428,344.535 583.428,370.746 624.564,370.746 624.564,604.951 583.428,604.951 
				583.428,631.162 648.447,631.162 648.447,344.535 			"/>
			<polygon fill="#FFFFFF" points="376.088,631.162 376.088,604.951 334.951,604.951 334.951,370.746 376.088,370.746 
				376.088,344.535 311.064,344.535 311.064,631.162 			"/>
		</g>
		<g>
			<path fill="#FFFFFF" d="M359.006,401.442h6.586c1.488,0,2.619,0.114,3.396,0.343c1.049,0.308,1.941,0.855,2.689,1.645
				c0.746,0.784,1.316,1.749,1.705,2.889c0.389,1.143,0.584,2.546,0.584,4.217c0,1.471-0.184,2.737-0.549,3.799
				c-0.445,1.303-1.08,2.352-1.908,3.157c-0.625,0.605-1.469,1.08-2.533,1.422c-0.791,0.254-1.857,0.377-3.191,0.377h-6.779V401.442
				z M362.607,404.464v11.823h2.689c1.006,0,1.738-0.059,2.184-0.172c0.582-0.147,1.068-0.397,1.453-0.744
				c0.385-0.351,0.699-0.925,0.943-1.721c0.248-0.802,0.367-1.889,0.367-3.271c0-1.379-0.119-2.438-0.367-3.178
				c-0.244-0.739-0.582-1.315-1.021-1.728c-0.438-0.417-0.994-0.696-1.666-0.84c-0.506-0.116-1.492-0.17-2.961-0.17H362.607z"/>
			<path fill="#FFFFFF" d="M384.484,415.177l3.412,0.572c-0.438,1.247-1.131,2.2-2.074,2.854c-0.943,0.652-2.131,0.979-3.553,0.979
				c-2.244,0-3.908-0.733-4.988-2.203c-0.852-1.174-1.275-2.659-1.275-4.454c0-2.143,0.561-3.823,1.68-5.036
				c1.119-1.212,2.533-1.819,4.248-1.819c1.918,0,3.441,0.639,4.553,1.906c1.113,1.27,1.645,3.215,1.594,5.839h-8.572
				c0.027,1.013,0.303,1.804,0.828,2.368c0.527,0.563,1.186,0.846,1.975,0.846c0.531,0,0.982-0.147,1.348-0.438
				S384.299,415.827,384.484,415.177z M384.68,411.718c-0.023-0.99-0.279-1.743-0.766-2.26c-0.484-0.512-1.08-0.772-1.775-0.772
				c-0.746,0-1.363,0.271-1.85,0.815s-0.727,1.284-0.721,2.217H384.68z"/>
			<path fill="#FFFFFF" d="M394.426,419.29l-5.215-12.929h3.59l2.441,6.601l0.703,2.199c0.186-0.561,0.303-0.928,0.354-1.106
				c0.113-0.366,0.236-0.727,0.365-1.093l2.459-6.601h3.518l-5.137,12.929H394.426z"/>
			<path fill="#FFFFFF" d="M412.221,415.177l3.412,0.572c-0.441,1.247-1.131,2.2-2.076,2.854c-0.945,0.652-2.129,0.979-3.551,0.979
				c-2.248,0-3.91-0.733-4.992-2.203c-0.85-1.174-1.271-2.659-1.271-4.454c0-2.143,0.559-3.823,1.676-5.036
				c1.121-1.212,2.535-1.819,4.248-1.819c1.922,0,3.443,0.639,4.555,1.906c1.111,1.27,1.645,3.215,1.594,5.839h-8.572
				c0.027,1.013,0.303,1.804,0.826,2.368c0.529,0.563,1.186,0.846,1.975,0.846c0.533,0,0.984-0.147,1.35-0.438
				S412.033,415.827,412.221,415.177z M412.418,411.718c-0.023-0.99-0.285-1.743-0.77-2.26c-0.486-0.512-1.08-0.772-1.775-0.772
				c-0.748,0-1.365,0.271-1.852,0.815c-0.484,0.545-0.727,1.284-0.717,2.217H412.418z"/>
			<path fill="#FFFFFF" d="M418.6,419.29v-17.848h3.426v17.848H418.6z"/>
			<path fill="#FFFFFF" d="M424.74,412.643c0-1.135,0.279-2.236,0.84-3.298c0.559-1.063,1.352-1.877,2.379-2.436
				c1.025-0.56,2.172-0.841,3.441-0.841c1.955,0,3.557,0.639,4.809,1.906c1.246,1.27,1.871,2.878,1.871,4.815
				c0,1.955-0.629,3.578-1.893,4.864c-1.262,1.287-2.848,1.927-4.764,1.927c-1.189,0-2.32-0.267-3.393-0.805
				c-1.076-0.531-1.893-1.316-2.451-2.351C425.02,415.387,424.74,414.127,424.74,412.643z M428.244,412.826
				c0,1.282,0.305,2.266,0.914,2.947c0.605,0.68,1.357,1.021,2.254,1.021c0.893,0,1.639-0.342,2.246-1.021
				c0.602-0.682,0.906-1.674,0.906-2.972c0-1.266-0.305-2.239-0.906-2.924c-0.607-0.681-1.354-1.022-2.246-1.022
				c-0.896,0-1.648,0.342-2.254,1.022C428.549,410.563,428.244,411.543,428.244,412.826z"/>
			<path fill="#FFFFFF" d="M440.664,406.361h3.191v1.899c0.412-0.648,0.971-1.176,1.678-1.58c0.709-0.409,1.488-0.612,2.348-0.612
				c1.504,0,2.779,0.593,3.828,1.766c1.045,1.178,1.57,2.817,1.57,4.918c0,2.161-0.529,3.837-1.586,5.034
				c-1.053,1.196-2.33,1.795-3.834,1.795c-0.717,0-1.361-0.139-1.939-0.423c-0.584-0.288-1.193-0.774-1.836-1.461v6.51h-3.42
				V406.361z M444.049,412.607c0,1.454,0.289,2.526,0.863,3.22c0.574,0.696,1.279,1.043,2.107,1.043c0.795,0,1.457-0.319,1.98-0.958
				c0.533-0.638,0.797-1.684,0.797-3.133c0-1.356-0.271-2.364-0.82-3.021c-0.545-0.657-1.215-0.987-2.02-0.987
				c-0.836,0-1.527,0.323-2.08,0.969C444.324,410.384,444.049,411.342,444.049,412.607z"/>
			<path fill="#FFFFFF" d="M455.738,406.361h3.156v1.765c1.127-1.367,2.467-2.058,4.025-2.058c0.828,0,1.547,0.17,2.152,0.516
				c0.611,0.338,1.107,0.854,1.502,1.542c0.566-0.688,1.18-1.204,1.84-1.542c0.658-0.346,1.355-0.516,2.102-0.516
				c0.953,0,1.754,0.196,2.41,0.581c0.658,0.385,1.15,0.952,1.473,1.698c0.238,0.552,0.354,1.441,0.354,2.678v8.265h-3.418v-7.39
				c0-1.284-0.117-2.111-0.355-2.484c-0.314-0.485-0.801-0.73-1.459-0.73c-0.479,0-0.93,0.147-1.35,0.439
				c-0.424,0.291-0.727,0.718-0.916,1.285c-0.188,0.565-0.281,1.455-0.281,2.671v6.209h-3.42v-7.086
				c0-1.255-0.063-2.069-0.182-2.435c-0.121-0.365-0.313-0.638-0.566-0.816s-0.604-0.268-1.039-0.268
				c-0.527,0-1.004,0.145-1.426,0.427c-0.42,0.285-0.723,0.696-0.906,1.229c-0.182,0.538-0.271,1.428-0.271,2.668v6.281h-3.424
				V406.361z"/>
			<path fill="#FFFFFF" d="M485.648,415.177l3.412,0.572c-0.439,1.247-1.131,2.2-2.076,2.854c-0.943,0.652-2.127,0.979-3.551,0.979
				c-2.246,0-3.91-0.733-4.99-2.203c-0.85-1.174-1.273-2.659-1.273-4.454c0-2.143,0.559-3.823,1.678-5.036
				c1.121-1.212,2.535-1.819,4.248-1.819c1.92,0,3.443,0.639,4.553,1.906c1.113,1.27,1.645,3.215,1.596,5.839h-8.574
				c0.029,1.013,0.305,1.804,0.828,2.368c0.529,0.563,1.186,0.846,1.975,0.846c0.531,0,0.982-0.147,1.35-0.438
				C485.186,416.298,485.463,415.827,485.648,415.177z M485.848,411.718c-0.023-0.99-0.285-1.743-0.771-2.26
				c-0.484-0.512-1.078-0.772-1.773-0.772c-0.748,0-1.365,0.271-1.852,0.815s-0.727,1.284-0.719,2.217H485.848z"/>
			<path fill="#FFFFFF" d="M503.789,419.29h-3.42v-6.597c0-1.396-0.07-2.303-0.219-2.71c-0.146-0.407-0.385-0.727-0.711-0.956
				c-0.33-0.226-0.721-0.342-1.184-0.342c-0.596,0-1.129,0.163-1.598,0.489c-0.471,0.323-0.793,0.755-0.969,1.291
				c-0.174,0.534-0.26,1.524-0.26,2.97v5.854h-3.424v-12.929h3.18v1.899c1.131-1.46,2.549-2.192,4.258-2.192
				c0.758,0,1.447,0.135,2.07,0.409c0.627,0.272,1.098,0.618,1.42,1.043c0.318,0.42,0.541,0.9,0.668,1.433
				c0.125,0.536,0.188,1.303,0.188,2.304V419.29z"/>
			<path fill="#FFFFFF" d="M513.188,406.361v2.729h-2.334v5.209c0,1.054,0.023,1.673,0.066,1.844
				c0.047,0.174,0.146,0.318,0.307,0.436c0.154,0.111,0.35,0.17,0.574,0.17c0.318,0,0.777-0.112,1.375-0.329l0.297,2.654
				c-0.797,0.338-1.697,0.508-2.705,0.508c-0.615,0-1.17-0.101-1.668-0.311c-0.492-0.206-0.857-0.474-1.088-0.8
				c-0.232-0.331-0.391-0.773-0.482-1.334c-0.072-0.4-0.107-1.2-0.107-2.411v-5.636h-1.568v-2.729h1.568v-2.567l3.432-1.996v4.563
				H513.188z"/>
			<path fill="#FFFFFF" d="M528.422,406.361v2.729h-2.336v5.209c0,1.054,0.023,1.673,0.066,1.844
				c0.045,0.174,0.148,0.318,0.307,0.436c0.156,0.111,0.35,0.17,0.576,0.17c0.318,0,0.775-0.112,1.375-0.329l0.291,2.654
				c-0.793,0.338-1.695,0.508-2.701,0.508c-0.613,0-1.168-0.101-1.666-0.311c-0.494-0.206-0.859-0.474-1.088-0.8
				c-0.234-0.331-0.395-0.773-0.482-1.334c-0.074-0.4-0.109-1.2-0.109-2.411v-5.636h-1.574v-2.729h1.574v-2.567l3.432-1.996v4.563
				H528.422z"/>
			<path fill="#FFFFFF" d="M530.008,412.643c0-1.135,0.279-2.236,0.84-3.298c0.559-1.063,1.354-1.877,2.381-2.436
				c1.025-0.56,2.172-0.841,3.438-0.841c1.955,0,3.557,0.639,4.813,1.906c1.248,1.27,1.873,2.878,1.873,4.815
				c0,1.955-0.629,3.578-1.893,4.864c-1.268,1.287-2.854,1.927-4.768,1.927c-1.186,0-2.316-0.267-3.391-0.805
				c-1.074-0.531-1.895-1.316-2.453-2.351C530.287,415.387,530.008,414.127,530.008,412.643z M533.518,412.826
				c0,1.282,0.301,2.266,0.912,2.947c0.607,0.68,1.355,1.021,2.25,1.021c0.893,0,1.641-0.342,2.246-1.021
				c0.602-0.682,0.904-1.674,0.904-2.972c0-1.266-0.303-2.239-0.904-2.924c-0.605-0.681-1.354-1.022-2.246-1.022
				c-0.895,0-1.643,0.342-2.25,1.022C533.818,410.563,533.518,411.543,533.518,412.826z"/>
			<path fill="#FFFFFF" d="M563.779,416.115v3.175h-11.988c0.129-1.2,0.518-2.339,1.166-3.412c0.648-1.077,1.932-2.505,3.848-4.279
				c1.543-1.44,2.49-2.411,2.842-2.925c0.469-0.704,0.701-1.403,0.701-2.09c0-0.769-0.205-1.352-0.613-1.763
				c-0.408-0.408-0.979-0.614-1.701-0.614c-0.715,0-1.283,0.213-1.703,0.646c-0.422,0.43-0.664,1.142-0.73,2.142l-3.408-0.341
				c0.203-1.883,0.84-3.232,1.912-4.051c1.068-0.82,2.41-1.235,4.014-1.235c1.764,0,3.148,0.478,4.154,1.43
				c1.006,0.947,1.508,2.128,1.508,3.542c0,0.803-0.145,1.57-0.43,2.292c-0.289,0.727-0.742,1.488-1.369,2.282
				c-0.416,0.529-1.162,1.287-2.238,2.277c-1.084,0.991-1.77,1.648-2.055,1.971c-0.289,0.328-0.521,0.644-0.701,0.954H563.779z"/>
			<path fill="#FFFFFF" d="M571.879,401.367c1.729,0,3.076,0.621,4.051,1.853c1.16,1.461,1.746,3.884,1.746,7.269
				c0,3.375-0.59,5.806-1.756,7.282c-0.969,1.216-2.313,1.823-4.041,1.823c-1.736,0-3.137-0.665-4.201-2.002
				c-1.066-1.332-1.598-3.713-1.598-7.142c0-3.358,0.588-5.776,1.754-7.255C568.805,401.979,570.148,401.367,571.879,401.367z
				 M571.879,404.207c-0.418,0-0.787,0.132-1.109,0.396c-0.326,0.266-0.574,0.735-0.752,1.419c-0.238,0.885-0.355,2.373-0.355,4.467
				c0,2.097,0.107,3.535,0.314,4.315c0.215,0.788,0.479,1.309,0.803,1.564c0.318,0.261,0.682,0.393,1.1,0.393
				c0.41,0,0.779-0.132,1.105-0.397c0.322-0.264,0.576-0.737,0.756-1.419c0.236-0.876,0.354-2.359,0.354-4.456
				c0-2.094-0.105-3.532-0.32-4.316c-0.209-0.783-0.473-1.304-0.795-1.569C572.658,404.339,572.289,404.207,571.879,404.207z"/>
			<path fill="#FFFFFF" d="M588.717,419.29h-3.424v-12.891c-1.248,1.166-2.721,2.033-4.418,2.594v-3.107
				c0.893-0.291,1.859-0.845,2.91-1.659c1.045-0.815,1.764-1.768,2.152-2.859h2.779V419.29z"/>
			<path fill="#FFFFFF" d="M605.383,416.115v3.175h-11.992c0.129-1.2,0.518-2.339,1.166-3.412c0.648-1.077,1.934-2.505,3.852-4.279
				c1.541-1.44,2.486-2.411,2.836-2.925c0.471-0.704,0.703-1.403,0.703-2.09c0-0.769-0.205-1.352-0.613-1.763
				c-0.408-0.408-0.977-0.614-1.697-0.614c-0.715,0-1.283,0.213-1.703,0.646c-0.424,0.43-0.666,1.142-0.73,2.142l-3.412-0.341
				c0.201-1.883,0.838-3.232,1.912-4.051c1.072-0.82,2.414-1.235,4.018-1.235c1.762,0,3.143,0.478,4.15,1.43
				c1.01,0.947,1.512,2.128,1.512,3.542c0,0.803-0.145,1.57-0.432,2.292c-0.291,0.727-0.746,1.488-1.371,2.282
				c-0.416,0.529-1.162,1.287-2.238,2.277c-1.082,0.991-1.766,1.648-2.053,1.971c-0.287,0.328-0.52,0.644-0.699,0.954H605.383z"/>
		</g>
		<g>
			<path fill="#FFFFFF" d="M359.822,427.928h5.23c1.033,0,1.811,0.047,2.318,0.133c0.51,0.086,0.965,0.265,1.365,0.541
				c0.398,0.275,0.734,0.638,1.006,1.093c0.264,0.459,0.4,0.964,0.4,1.531c0,0.614-0.168,1.175-0.494,1.687
				c-0.332,0.514-0.777,0.896-1.344,1.151c0.797,0.234,1.406,0.63,1.838,1.19c0.428,0.56,0.641,1.212,0.641,1.971
				c0,0.595-0.139,1.174-0.41,1.737c-0.279,0.561-0.658,1.012-1.135,1.345c-0.482,0.338-1.074,0.545-1.773,0.623
				c-0.441,0.047-1.504,0.078-3.189,0.088h-4.453V427.928z M362.463,430.11v3.027h1.734c1.027,0,1.666-0.016,1.92-0.047
				c0.451-0.054,0.809-0.21,1.068-0.467c0.256-0.261,0.389-0.603,0.389-1.025c0-0.404-0.113-0.73-0.334-0.987
				c-0.227-0.248-0.559-0.404-0.998-0.458c-0.266-0.027-1.018-0.043-2.262-0.043H362.463z M362.463,435.316v3.498h2.449
				c0.947,0,1.553-0.027,1.816-0.081c0.387-0.069,0.705-0.245,0.955-0.521c0.248-0.277,0.373-0.65,0.373-1.113
				c0-0.393-0.098-0.728-0.289-1c-0.189-0.271-0.465-0.473-0.822-0.598c-0.367-0.123-1.148-0.186-2.348-0.186H362.463z"/>
			<path fill="#FFFFFF" d="M379.236,441.018v-1.417c-0.342,0.505-0.797,0.9-1.359,1.197c-0.561,0.286-1.156,0.435-1.781,0.435
				c-0.641,0-1.209-0.14-1.713-0.419c-0.506-0.281-0.875-0.674-1.1-1.178c-0.227-0.505-0.338-1.206-0.338-2.098v-6.002h2.506v4.359
				c0,1.332,0.047,2.147,0.135,2.453c0.094,0.296,0.27,0.535,0.51,0.711c0.246,0.175,0.553,0.26,0.93,0.26
				c0.432,0,0.811-0.116,1.152-0.349c0.336-0.234,0.568-0.529,0.691-0.876c0.125-0.347,0.188-1.202,0.188-2.557v-4.002h2.512v9.481
				H379.236z"/>
			<path fill="#FFFFFF" d="M383.277,438.313l2.523-0.387c0.107,0.492,0.326,0.865,0.652,1.113c0.324,0.257,0.783,0.382,1.375,0.382
				c0.645,0,1.135-0.118,1.461-0.359c0.219-0.163,0.33-0.389,0.33-0.668c0-0.19-0.059-0.352-0.178-0.475
				c-0.125-0.116-0.404-0.226-0.836-0.331c-2.025-0.446-3.307-0.851-3.852-1.224c-0.754-0.51-1.127-1.221-1.127-2.13
				c0-0.825,0.326-1.515,0.971-2.073c0.658-0.555,1.66-0.836,3.02-0.836c1.299,0,2.262,0.21,2.893,0.63
				c0.633,0.423,1.063,1.05,1.305,1.875l-2.363,0.439c-0.1-0.37-0.295-0.651-0.574-0.849c-0.287-0.199-0.688-0.297-1.213-0.297
				c-0.66,0-1.135,0.094-1.418,0.277c-0.191,0.132-0.283,0.303-0.283,0.511c0,0.179,0.082,0.331,0.248,0.454
				c0.227,0.168,1.006,0.404,2.34,0.708c1.336,0.304,2.27,0.677,2.799,1.111c0.523,0.449,0.783,1.072,0.783,1.865
				c0,0.872-0.361,1.618-1.088,2.244c-0.723,0.625-1.795,0.937-3.217,0.937c-1.291,0-2.316-0.262-3.074-0.785
				C384.004,439.927,383.51,439.212,383.277,438.313z"/>
			<path fill="#FFFFFF" d="M394.336,430.254v-2.326h2.506v2.326H394.336z M394.336,441.018v-9.481h2.506v9.481H394.336z"/>
			<path fill="#FFFFFF" d="M408.035,441.018h-2.508v-4.84c0-1.021-0.053-1.682-0.158-1.98c-0.109-0.304-0.279-0.539-0.521-0.702
				c-0.24-0.171-0.535-0.252-0.871-0.252c-0.436,0-0.826,0.12-1.178,0.357c-0.342,0.239-0.576,0.554-0.705,0.945
				c-0.129,0.397-0.195,1.119-0.195,2.177v4.295h-2.502v-9.481h2.328v1.392c0.826-1.068,1.873-1.602,3.123-1.602
				c0.555,0,1.063,0.098,1.52,0.295c0.455,0.203,0.805,0.456,1.037,0.764c0.238,0.311,0.4,0.659,0.49,1.057
				c0.094,0.39,0.141,0.953,0.141,1.688V441.018z"/>
			<path fill="#FFFFFF" d="M416.068,438.001l2.5,0.422c-0.322,0.912-0.83,1.613-1.521,2.094c-0.693,0.476-1.564,0.716-2.602,0.716
				c-1.646,0-2.871-0.537-3.66-1.616c-0.629-0.864-0.939-1.953-0.939-3.267c0-1.569,0.41-2.8,1.23-3.694
				c0.822-0.885,1.865-1.329,3.117-1.329c1.414,0,2.527,0.463,3.342,1.392c0.814,0.933,1.205,2.36,1.166,4.284h-6.279
				c0.016,0.742,0.219,1.324,0.607,1.734c0.383,0.413,0.865,0.623,1.443,0.623c0.389,0,0.725-0.109,0.988-0.322
				C415.732,438.823,415.934,438.48,416.068,438.001z M416.215,435.464c-0.021-0.724-0.209-1.275-0.563-1.651
				c-0.357-0.38-0.793-0.569-1.303-0.569c-0.553,0-1.004,0.198-1.361,0.601c-0.357,0.4-0.527,0.937-0.523,1.62H416.215z"/>
			<path fill="#FFFFFF" d="M419.859,438.313l2.521-0.387c0.109,0.492,0.326,0.865,0.652,1.113c0.326,0.257,0.787,0.382,1.377,0.382
				c0.645,0,1.135-0.118,1.461-0.359c0.217-0.163,0.33-0.389,0.33-0.668c0-0.19-0.059-0.352-0.178-0.475
				c-0.125-0.116-0.404-0.226-0.836-0.331c-2.025-0.446-3.307-0.851-3.852-1.224c-0.754-0.51-1.125-1.221-1.125-2.13
				c0-0.825,0.324-1.515,0.971-2.073c0.656-0.555,1.658-0.836,3.018-0.836c1.299,0,2.262,0.21,2.893,0.63
				c0.633,0.423,1.064,1.05,1.307,1.875l-2.363,0.439c-0.104-0.37-0.297-0.651-0.576-0.849c-0.287-0.199-0.688-0.297-1.213-0.297
				c-0.66,0-1.135,0.094-1.418,0.277c-0.189,0.132-0.283,0.303-0.283,0.511c0,0.179,0.082,0.331,0.248,0.454
				c0.225,0.168,1.008,0.404,2.34,0.708c1.338,0.304,2.27,0.677,2.799,1.111c0.523,0.449,0.783,1.072,0.783,1.865
				c0,0.872-0.361,1.618-1.088,2.244c-0.723,0.625-1.795,0.937-3.217,0.937c-1.291,0-2.316-0.262-3.074-0.785
				C420.586,439.927,420.092,439.212,419.859,438.313z"/>
			<path fill="#FFFFFF" d="M430.029,438.313l2.521-0.387c0.109,0.492,0.322,0.865,0.654,1.113c0.326,0.257,0.783,0.382,1.371,0.382
				c0.648,0,1.139-0.118,1.465-0.359c0.219-0.163,0.326-0.389,0.326-0.668c0-0.19-0.059-0.352-0.18-0.475
				c-0.123-0.116-0.404-0.226-0.834-0.331c-2.025-0.446-3.309-0.851-3.848-1.224c-0.75-0.51-1.127-1.221-1.127-2.13
				c0-0.825,0.326-1.515,0.975-2.073c0.65-0.555,1.656-0.836,3.016-0.836c1.299,0,2.264,0.21,2.893,0.63
				c0.629,0.423,1.063,1.05,1.305,1.875l-2.367,0.439c-0.1-0.37-0.291-0.651-0.576-0.849c-0.281-0.199-0.686-0.297-1.207-0.297
				c-0.66,0-1.133,0.094-1.422,0.277c-0.188,0.132-0.285,0.303-0.285,0.511c0,0.179,0.082,0.331,0.254,0.454
				c0.227,0.168,1.002,0.404,2.34,0.708c1.336,0.304,2.27,0.677,2.797,1.111c0.521,0.449,0.785,1.072,0.785,1.865
				c0,0.872-0.365,1.618-1.088,2.244c-0.727,0.625-1.799,0.937-3.221,0.937c-1.291,0-2.313-0.262-3.066-0.785
				C430.756,439.927,430.262,439.212,430.029,438.313z"/>
			<path fill="#FFFFFF" d="M454.555,436.209l2.561,0.809c-0.393,1.433-1.047,2.489-1.959,3.185
				c-0.914,0.692-2.072,1.038-3.479,1.038c-1.732,0-3.168-0.59-4.285-1.78c-1.119-1.185-1.68-2.809-1.68-4.867
				c0-2.179,0.566-3.872,1.686-5.077c1.127-1.206,2.607-1.805,4.443-1.805c1.6,0,2.898,0.471,3.9,1.416
				c0.592,0.561,1.041,1.365,1.338,2.409l-2.615,0.626c-0.156-0.68-0.48-1.212-0.969-1.604c-0.488-0.394-1.088-0.591-1.787-0.591
				c-0.971,0-1.758,0.35-2.361,1.046c-0.607,0.695-0.912,1.821-0.912,3.382c0,1.655,0.301,2.833,0.896,3.532
				c0.598,0.706,1.369,1.06,2.322,1.06c0.701,0,1.307-0.226,1.811-0.673C453.971,437.864,454.336,437.165,454.555,436.209z"/>
			<path fill="#FFFFFF" d="M458.785,436.146c0-0.834,0.207-1.639,0.613-2.423c0.414-0.78,0.996-1.37,1.75-1.783
				c0.754-0.411,1.594-0.614,2.518-0.614c1.434,0,2.611,0.463,3.529,1.392c0.916,0.933,1.375,2.112,1.375,3.535
				c0,1.433-0.463,2.624-1.391,3.564c-0.926,0.943-2.092,1.415-3.494,1.415c-0.867,0-1.699-0.193-2.482-0.591
				c-0.793-0.389-1.391-0.965-1.805-1.727C458.992,438.155,458.785,437.234,458.785,436.146z M461.357,436.279
				c0,0.941,0.223,1.659,0.668,2.162c0.443,0.498,0.996,0.746,1.648,0.746c0.656,0,1.205-0.248,1.646-0.746
				c0.445-0.503,0.668-1.229,0.668-2.182c0-0.928-0.223-1.643-0.668-2.141c-0.441-0.5-0.99-0.753-1.646-0.753
				c-0.652,0-1.205,0.253-1.648,0.753C461.58,434.617,461.357,435.339,461.357,436.279z"/>
			<path fill="#FFFFFF" d="M479.154,441.018h-2.506v-4.84c0-1.021-0.055-1.682-0.164-1.98c-0.107-0.304-0.279-0.539-0.52-0.702
				c-0.24-0.171-0.535-0.252-0.871-0.252c-0.436,0-0.824,0.12-1.172,0.357c-0.342,0.239-0.58,0.554-0.709,0.945
				c-0.127,0.397-0.193,1.119-0.193,2.177v4.295h-2.504v-9.481h2.328v1.392c0.828-1.068,1.871-1.602,3.121-1.602
				c0.561,0,1.064,0.098,1.523,0.295c0.453,0.203,0.805,0.456,1.037,0.764c0.238,0.311,0.4,0.659,0.49,1.057
				c0.092,0.39,0.139,0.953,0.139,1.688V441.018z"/>
			<path fill="#FFFFFF" d="M490.318,441.018h-2.5v-4.84c0-1.021-0.057-1.682-0.164-1.98c-0.109-0.304-0.281-0.539-0.521-0.702
				c-0.24-0.171-0.531-0.252-0.869-0.252c-0.436,0-0.83,0.12-1.174,0.357c-0.346,0.239-0.58,0.554-0.713,0.945
				c-0.125,0.397-0.189,1.119-0.189,2.177v4.295h-2.508v-9.481h2.334v1.392c0.822-1.068,1.867-1.602,3.123-1.602
				c0.557,0,1.061,0.098,1.52,0.295c0.455,0.203,0.801,0.456,1.039,0.764c0.234,0.311,0.4,0.659,0.488,1.057
				c0.094,0.39,0.135,0.953,0.135,1.688V441.018z"/>
			<path fill="#FFFFFF" d="M498.355,438.001l2.5,0.422c-0.32,0.912-0.83,1.613-1.525,2.094c-0.689,0.476-1.557,0.716-2.594,0.716
				c-1.648,0-2.871-0.537-3.664-1.616c-0.627-0.864-0.938-1.953-0.938-3.267c0-1.569,0.408-2.8,1.232-3.694
				c0.818-0.885,1.861-1.329,3.115-1.329c1.412,0,2.521,0.463,3.34,1.392c0.814,0.933,1.203,2.36,1.164,4.284h-6.283
				c0.016,0.742,0.221,1.324,0.609,1.734c0.389,0.413,0.871,0.623,1.445,0.623c0.395,0,0.723-0.109,0.992-0.322
				C498.018,438.823,498.221,438.48,498.355,438.001z M498.5,435.464c-0.016-0.724-0.207-1.275-0.561-1.651
				c-0.357-0.38-0.793-0.569-1.305-0.569c-0.549,0-1,0.198-1.357,0.601c-0.355,0.4-0.535,0.937-0.527,1.62H498.5z"/>
			<path fill="#FFFFFF" d="M511.299,434.345l-2.469,0.442c-0.082-0.493-0.273-0.862-0.57-1.117
				c-0.295-0.248-0.674-0.377-1.145-0.377c-0.627,0-1.123,0.218-1.494,0.651c-0.373,0.432-0.559,1.153-0.559,2.164
				c0,1.126,0.186,1.919,0.568,2.384c0.377,0.463,0.887,0.695,1.52,0.695c0.477,0,0.865-0.132,1.168-0.404
				c0.305-0.271,0.518-0.74,0.646-1.399l2.459,0.42c-0.256,1.133-0.746,1.986-1.473,2.565c-0.723,0.576-1.697,0.863-2.914,0.863
				c-1.391,0-2.494-0.435-3.324-1.314c-0.82-0.869-1.234-2.085-1.234-3.631c0-1.563,0.414-2.784,1.244-3.654
				c0.828-0.871,1.945-1.307,3.354-1.307c1.158,0,2.074,0.245,2.756,0.742C510.512,432.566,511.002,433.324,511.299,434.345z"/>
			<path fill="#FFFFFF" d="M517.549,431.536v1.998h-1.709v3.825c0,0.771,0.016,1.223,0.047,1.354
				c0.031,0.125,0.107,0.232,0.225,0.314c0.115,0.081,0.256,0.125,0.42,0.125c0.232,0,0.566-0.082,1.01-0.241l0.213,1.946
				c-0.582,0.25-1.244,0.374-1.977,0.374c-0.455,0-0.863-0.077-1.225-0.225c-0.361-0.156-0.631-0.351-0.797-0.592
				c-0.17-0.241-0.289-0.567-0.357-0.979c-0.051-0.288-0.078-0.879-0.078-1.768v-4.136h-1.154v-1.998h1.154v-1.88l2.52-1.463v3.343
				H517.549z"/>
			<path fill="#FFFFFF" d="M532.762,436.209l2.561,0.809c-0.393,1.433-1.045,2.489-1.959,3.185
				c-0.912,0.692-2.074,1.038-3.477,1.038c-1.74,0-3.168-0.59-4.281-1.78c-1.121-1.185-1.68-2.809-1.68-4.867
				c0-2.179,0.559-3.872,1.686-5.077c1.123-1.206,2.604-1.805,4.434-1.805c1.602,0,2.904,0.471,3.902,1.416
				c0.598,0.561,1.043,1.365,1.34,2.409l-2.615,0.626c-0.154-0.68-0.477-1.212-0.967-1.604c-0.498-0.394-1.092-0.591-1.795-0.591
				c-0.967,0-1.758,0.35-2.359,1.046c-0.602,0.695-0.904,1.821-0.904,3.382c0,1.655,0.295,2.833,0.893,3.532
				c0.596,0.706,1.369,1.06,2.316,1.06c0.707,0,1.305-0.226,1.818-0.673C532.18,437.864,532.541,437.165,532.762,436.209z"/>
			<path fill="#FFFFFF" d="M540.072,427.928v4.814c0.811-0.945,1.775-1.416,2.902-1.416c0.576,0,1.096,0.106,1.563,0.319
				c0.461,0.214,0.813,0.489,1.049,0.82c0.232,0.333,0.393,0.703,0.48,1.106c0.088,0.406,0.125,1.036,0.125,1.883v5.563h-2.502
				v-5.006c0-0.996-0.051-1.625-0.148-1.893c-0.092-0.269-0.26-0.484-0.502-0.64c-0.24-0.155-0.539-0.236-0.904-0.236
				c-0.414,0-0.787,0.101-1.115,0.302c-0.334,0.205-0.57,0.512-0.723,0.916c-0.152,0.411-0.225,1.01-0.225,1.811v4.746h-2.51v-13.09
				H540.072z"/>
			<path fill="#FFFFFF" d="M548.738,430.254v-2.326h2.51v2.326H548.738z M548.738,441.018v-9.481h2.51v9.481H548.738z"/>
			<path fill="#FFFFFF" d="M562.443,441.018h-2.51v-4.84c0-1.021-0.055-1.682-0.16-1.98c-0.105-0.304-0.281-0.539-0.52-0.702
				c-0.246-0.171-0.539-0.252-0.877-0.252c-0.434,0-0.822,0.12-1.168,0.357c-0.342,0.239-0.584,0.554-0.709,0.945
				c-0.131,0.397-0.193,1.119-0.193,2.177v4.295h-2.506v-9.481h2.326v1.392c0.83-1.068,1.871-1.602,3.131-1.602
				c0.551,0,1.055,0.098,1.514,0.295c0.459,0.203,0.809,0.456,1.043,0.764c0.232,0.311,0.395,0.659,0.488,1.057
				c0.094,0.39,0.141,0.953,0.141,1.688V441.018z"/>
			<path fill="#FFFFFF" d="M566.857,434.43l-2.277-0.411c0.258-0.916,0.699-1.596,1.322-2.035c0.629-0.438,1.555-0.657,2.789-0.657
				c1.119,0,1.951,0.132,2.498,0.397c0.549,0.264,0.934,0.599,1.158,1.006c0.217,0.408,0.336,1.155,0.336,2.245l-0.031,2.93
				c0,0.832,0.041,1.446,0.123,1.844c0.078,0.396,0.23,0.815,0.451,1.27h-2.482c-0.066-0.166-0.145-0.414-0.242-0.742
				c-0.043-0.147-0.068-0.244-0.09-0.295c-0.426,0.42-0.885,0.73-1.375,0.94c-0.486,0.21-1.01,0.312-1.564,0.312
				c-0.973,0-1.742-0.265-2.307-0.792c-0.563-0.529-0.842-1.197-0.842-2.011c0-0.534,0.129-1.015,0.385-1.435
				c0.252-0.42,0.613-0.739,1.076-0.964c0.459-0.223,1.123-0.417,1.994-0.583c1.172-0.217,1.99-0.427,2.439-0.614v-0.248
				c0-0.482-0.121-0.829-0.357-1.036c-0.242-0.202-0.688-0.307-1.348-0.307c-0.451,0-0.803,0.089-1.051,0.26
				C567.215,433.682,567.012,433.991,566.857,434.43z M570.219,436.466c-0.322,0.109-0.832,0.232-1.527,0.38
				c-0.699,0.153-1.152,0.297-1.369,0.441c-0.326,0.232-0.488,0.523-0.488,0.881c0,0.355,0.129,0.659,0.389,0.91
				c0.266,0.257,0.598,0.389,1.006,0.389c0.451,0,0.883-0.15,1.291-0.449c0.303-0.226,0.504-0.498,0.598-0.831
				c0.066-0.213,0.102-0.62,0.102-1.223V436.466z"/>
			<path fill="#FFFFFF" d="M580.172,441.018v-13.09h2.641v13.09H580.172z"/>
			<path fill="#FFFFFF" d="M593.932,441.018h-2.504v-4.84c0-1.021-0.055-1.682-0.164-1.98c-0.107-0.304-0.279-0.539-0.52-0.702
				c-0.24-0.171-0.533-0.252-0.871-0.252c-0.436,0-0.824,0.12-1.168,0.357c-0.346,0.239-0.58,0.554-0.713,0.945
				c-0.125,0.397-0.189,1.119-0.189,2.177v4.295h-2.51v-9.481h2.336v1.392c0.822-1.068,1.865-1.602,3.119-1.602
				c0.557,0,1.061,0.098,1.52,0.295c0.453,0.203,0.801,0.456,1.037,0.764c0.238,0.311,0.4,0.659,0.49,1.057
				c0.094,0.39,0.137,0.953,0.137,1.688V441.018z"/>
			<path fill="#FFFFFF" d="M604.746,434.345l-2.473,0.442c-0.084-0.493-0.271-0.862-0.566-1.117
				c-0.295-0.248-0.676-0.377-1.15-0.377c-0.623,0-1.119,0.218-1.492,0.651c-0.373,0.432-0.559,1.153-0.559,2.164
				c0,1.126,0.189,1.919,0.566,2.384c0.379,0.463,0.887,0.695,1.523,0.695c0.473,0,0.861-0.132,1.166-0.404
				c0.303-0.271,0.52-0.74,0.645-1.399l2.463,0.42c-0.256,1.133-0.746,1.986-1.477,2.565c-0.723,0.576-1.693,0.863-2.914,0.863
				c-1.387,0-2.494-0.435-3.318-1.314c-0.824-0.869-1.236-2.085-1.236-3.631c0-1.563,0.416-2.784,1.244-3.654
				c0.824-0.871,1.941-1.307,3.354-1.307c1.154,0,2.072,0.245,2.756,0.742C603.957,432.566,604.445,433.324,604.746,434.345z"/>
		</g>
		<g>
			<path fill="#FFFFFF" d="M366.479,490.851l-2.43,0.267c-0.059-0.497-0.213-0.87-0.463-1.106c-0.252-0.237-0.574-0.354-0.975-0.354
				c-0.527,0-0.975,0.232-1.342,0.711c-0.363,0.478-0.592,1.464-0.689,2.975c0.625-0.74,1.402-1.109,2.326-1.109
				c1.049,0,1.945,0.4,2.689,1.194c0.746,0.802,1.127,1.827,1.127,3.09c0,1.341-0.396,2.415-1.182,3.223
				c-0.783,0.809-1.795,1.213-3.023,1.213c-1.32,0-2.41-0.514-3.26-1.539c-0.852-1.024-1.275-2.706-1.275-5.046
				c0-2.398,0.443-4.128,1.33-5.185c0.887-1.063,2.035-1.593,3.455-1.593c0.99,0,1.814,0.276,2.463,0.837
				C365.883,488.984,366.299,489.789,366.479,490.851z M360.793,496.32c0,0.814,0.186,1.444,0.564,1.891
				c0.373,0.442,0.803,0.668,1.285,0.668c0.463,0,0.846-0.188,1.158-0.545c0.311-0.366,0.467-0.961,0.467-1.789
				c0-0.852-0.172-1.473-0.506-1.869c-0.33-0.396-0.746-0.596-1.244-0.596c-0.48,0-0.893,0.191-1.227,0.567
				C360.959,495.029,360.793,495.584,360.793,496.32z"/>
			<path fill="#FFFFFF" d="M373.531,501.357l2.867,0.351c0.047,0.329,0.156,0.559,0.332,0.685c0.236,0.179,0.609,0.27,1.121,0.27
				c0.654,0,1.146-0.098,1.473-0.295c0.223-0.132,0.385-0.346,0.502-0.637c0.078-0.21,0.117-0.59,0.117-1.15v-1.383
				c-0.754,1.025-1.693,1.535-2.838,1.535c-1.275,0-2.287-0.541-3.029-1.613c-0.584-0.854-0.875-1.913-0.875-3.181
				c0-1.589,0.381-2.802,1.146-3.643c0.766-0.84,1.717-1.256,2.852-1.256c1.174,0,2.141,0.513,2.902,1.54v-1.33h2.348v8.506
				c0,1.119-0.092,1.959-0.277,2.511c-0.186,0.555-0.441,0.99-0.775,1.304c-0.334,0.314-0.777,0.564-1.336,0.743
				c-0.553,0.179-1.26,0.264-2.105,0.264c-1.611,0-2.754-0.272-3.426-0.824s-1.01-1.247-1.01-2.092
				C373.52,501.576,373.527,501.474,373.531,501.357z M375.77,495.794c0,1.008,0.201,1.745,0.59,2.214
				c0.389,0.467,0.871,0.699,1.439,0.699c0.613,0,1.133-0.241,1.553-0.72c0.42-0.479,0.635-1.19,0.635-2.127
				c0-0.987-0.201-1.714-0.605-2.191c-0.404-0.474-0.918-0.713-1.535-0.713c-0.6,0-1.098,0.234-1.486,0.701
				C375.971,494.127,375.77,494.835,375.77,495.794z"/>
			<path fill="#FFFFFF" d="M384.934,500.732v-13.091h2.506v13.091H384.934z"/>
			<path fill="#FFFFFF" d="M389.43,495.86c0-0.835,0.205-1.64,0.613-2.42c0.41-0.784,0.994-1.374,1.748-1.787
				c0.756-0.411,1.594-0.613,2.523-0.613c1.432,0,2.609,0.463,3.527,1.391c0.912,0.936,1.373,2.113,1.373,3.535
				c0,1.435-0.465,2.625-1.389,3.564c-0.924,0.946-2.09,1.416-3.494,1.416c-0.871,0-1.701-0.194-2.486-0.592
				c-0.793-0.389-1.393-0.963-1.803-1.724C389.635,497.871,389.43,496.949,389.43,495.86z M392.002,495.994
				c0,0.939,0.221,1.658,0.668,2.161c0.443,0.498,0.994,0.746,1.65,0.746c0.658,0,1.205-0.248,1.648-0.746
				c0.443-0.503,0.668-1.23,0.668-2.183c0-0.928-0.225-1.643-0.668-2.141c-0.443-0.497-0.99-0.751-1.648-0.751
				c-0.656,0-1.207,0.254-1.65,0.751C392.223,494.33,392.002,495.052,392.002,495.994z"/>
			<path fill="#FFFFFF" d="M401.066,500.732v-13.091h2.516v4.717c0.768-0.884,1.686-1.318,2.748-1.318
				c1.152,0,2.109,0.416,2.863,1.252c0.752,0.838,1.135,2.038,1.135,3.6c0,1.62-0.389,2.87-1.158,3.741
				c-0.77,0.878-1.703,1.313-2.807,1.313c-0.541,0-1.072-0.132-1.6-0.404c-0.529-0.272-0.98-0.673-1.361-1.2v1.391H401.066z
				 M403.563,495.787c0,0.983,0.154,1.705,0.461,2.176c0.436,0.668,1.016,1.001,1.734,1.001c0.551,0,1.025-0.232,1.414-0.708
				s0.584-1.222,0.584-2.239c0-1.081-0.195-1.861-0.588-2.341c-0.393-0.48-0.898-0.72-1.508-0.72c-0.602,0-1.1,0.234-1.5,0.701
				C403.76,494.127,403.563,494.835,403.563,495.787z"/>
			<path fill="#FFFFFF" d="M414.221,494.143l-2.281-0.411c0.256-0.915,0.701-1.596,1.324-2.034c0.627-0.439,1.551-0.657,2.789-0.657
				c1.119,0,1.949,0.133,2.494,0.396c0.551,0.264,0.932,0.599,1.156,1.007c0.223,0.407,0.336,1.156,0.336,2.244l-0.029,2.93
				c0,0.835,0.045,1.447,0.123,1.844c0.078,0.396,0.232,0.815,0.449,1.271h-2.48c-0.064-0.168-0.146-0.416-0.24-0.742
				c-0.041-0.149-0.07-0.246-0.092-0.297c-0.428,0.42-0.887,0.732-1.373,0.94c-0.484,0.21-1.006,0.313-1.563,0.313
				c-0.975,0-1.742-0.266-2.303-0.793c-0.568-0.529-0.852-1.196-0.852-2.009c0-0.536,0.131-1.017,0.389-1.437
				c0.252-0.419,0.619-0.738,1.076-0.964c0.459-0.221,1.127-0.416,1.996-0.583c1.172-0.217,1.984-0.427,2.434-0.614v-0.248
				c0-0.482-0.117-0.827-0.357-1.033c-0.236-0.205-0.684-0.31-1.346-0.31c-0.445,0-0.795,0.089-1.043,0.263
				C414.574,493.396,414.373,493.704,414.221,494.143z M417.574,496.18c-0.318,0.109-0.832,0.233-1.521,0.381
				c-0.701,0.151-1.152,0.295-1.369,0.439c-0.326,0.232-0.49,0.523-0.49,0.881c0,0.355,0.133,0.659,0.393,0.912
				c0.26,0.256,0.596,0.389,1,0.389c0.451,0,0.885-0.152,1.293-0.45c0.303-0.226,0.502-0.498,0.6-0.829
				c0.064-0.216,0.096-0.623,0.096-1.226V496.18z"/>
			<path fill="#FFFFFF" d="M422.514,500.732v-13.091h2.51v13.091H422.514z"/>
			<path fill="#FFFFFF" d="M432.092,495.86c0-0.835,0.203-1.64,0.615-2.42c0.412-0.784,0.994-1.374,1.744-1.787
				c0.754-0.411,1.592-0.613,2.521-0.613c1.43,0,2.607,0.463,3.529,1.391c0.912,0.936,1.371,2.113,1.371,3.535
				c0,1.435-0.459,2.625-1.383,3.564c-0.928,0.946-2.094,1.416-3.502,1.416c-0.867,0-1.693-0.194-2.482-0.592
				c-0.789-0.389-1.387-0.963-1.799-1.724C432.295,497.871,432.092,496.949,432.092,495.86z M434.662,495.994
				c0,0.939,0.221,1.658,0.67,2.161c0.445,0.498,0.996,0.746,1.648,0.746c0.654,0,1.205-0.248,1.648-0.746
				c0.443-0.503,0.664-1.23,0.664-2.183c0-0.928-0.221-1.643-0.664-2.141c-0.443-0.497-0.994-0.751-1.648-0.751
				c-0.652,0-1.203,0.254-1.648,0.751C434.883,494.33,434.662,495.052,434.662,495.994z"/>
			<path fill="#FFFFFF" d="M442.74,491.25h1.396v-0.715c0-0.793,0.08-1.392,0.25-1.782c0.168-0.396,0.482-0.714,0.938-0.964
				c0.455-0.245,1.031-0.364,1.727-0.364c0.715,0,1.412,0.104,2.102,0.319l-0.348,1.75c-0.395-0.094-0.779-0.141-1.148-0.141
				c-0.361,0-0.621,0.082-0.777,0.25c-0.16,0.17-0.242,0.496-0.242,0.979v0.668h1.877v1.977h-1.877v7.506h-2.5v-7.506h-1.396V491.25
				z"/>
			<path fill="#FFFFFF" d="M448.824,491.25h1.4v-0.715c0-0.793,0.082-1.392,0.254-1.782c0.166-0.396,0.48-0.714,0.934-0.964
				c0.457-0.245,1.031-0.364,1.727-0.364c0.715,0,1.416,0.104,2.1,0.319l-0.342,1.75c-0.398-0.094-0.783-0.141-1.15-0.141
				c-0.363,0-0.623,0.082-0.777,0.25c-0.16,0.17-0.24,0.496-0.24,0.979v0.668h1.875v1.977h-1.875v7.506h-2.504v-7.506h-1.4V491.25z"
				/>
			<path fill="#FFFFFF" d="M456.016,489.968v-2.326h2.51v2.326H456.016z M456.016,500.732v-9.482h2.51v9.482H456.016z"/>
			<path fill="#FFFFFF" d="M469.359,494.058l-2.475,0.442c-0.082-0.492-0.273-0.862-0.568-1.115
				c-0.297-0.248-0.676-0.378-1.143-0.378c-0.631,0-1.127,0.22-1.496,0.65c-0.375,0.432-0.557,1.155-0.557,2.165
				c0,1.127,0.188,1.92,0.564,2.383c0.377,0.464,0.887,0.696,1.52,0.696c0.479,0,0.871-0.132,1.174-0.404
				c0.303-0.271,0.512-0.739,0.641-1.4l2.463,0.42c-0.256,1.133-0.746,1.988-1.467,2.565c-0.732,0.576-1.707,0.864-2.924,0.864
				c-1.387,0-2.49-0.436-3.314-1.313c-0.824-0.871-1.234-2.085-1.234-3.632c0-1.563,0.41-2.782,1.238-3.655
				c0.826-0.871,1.947-1.306,3.354-1.306c1.154,0,2.076,0.246,2.756,0.742C468.574,492.28,469.063,493.038,469.359,494.058z"/>
			<path fill="#FFFFFF" d="M476.754,497.715l2.494,0.421c-0.318,0.913-0.824,1.613-1.52,2.096c-0.691,0.474-1.561,0.715-2.604,0.715
				c-1.648,0-2.867-0.536-3.66-1.617c-0.621-0.863-0.934-1.953-0.934-3.266c0-1.57,0.41-2.798,1.229-3.693
				c0.824-0.887,1.857-1.33,3.117-1.33c1.406,0,2.521,0.463,3.338,1.391c0.816,0.936,1.205,2.361,1.168,4.284h-6.285
				c0.02,0.743,0.223,1.324,0.605,1.737c0.389,0.411,0.871,0.62,1.447,0.62c0.395,0,0.721-0.108,0.992-0.322
				C476.406,498.537,476.613,498.195,476.754,497.715z M476.895,495.177c-0.016-0.724-0.203-1.275-0.564-1.651
				c-0.357-0.377-0.793-0.569-1.305-0.569c-0.545,0-0.996,0.2-1.354,0.601s-0.537,0.937-0.527,1.62H476.895z"/>
			<path fill="#FFFFFF" d="M480.547,498.026l2.518-0.387c0.104,0.493,0.32,0.866,0.648,1.114c0.326,0.257,0.787,0.381,1.373,0.381
				c0.656,0,1.141-0.116,1.469-0.357c0.221-0.162,0.33-0.388,0.33-0.669c0-0.192-0.063-0.351-0.18-0.476
				c-0.125-0.116-0.404-0.226-0.84-0.329c-2.023-0.448-3.305-0.852-3.85-1.225c-0.746-0.511-1.119-1.222-1.119-2.131
				c0-0.825,0.318-1.513,0.971-2.072c0.646-0.556,1.652-0.836,3.016-0.836c1.303,0,2.266,0.21,2.895,0.629
				c0.631,0.426,1.064,1.05,1.303,1.876l-2.365,0.438c-0.104-0.368-0.291-0.648-0.576-0.847c-0.279-0.199-0.689-0.297-1.213-0.297
				c-0.658,0-1.131,0.092-1.418,0.276c-0.189,0.134-0.287,0.305-0.287,0.51c0,0.179,0.086,0.331,0.252,0.454
				c0.225,0.169,1.006,0.404,2.346,0.708c1.338,0.304,2.271,0.677,2.799,1.112c0.52,0.451,0.785,1.071,0.785,1.864
				c0,0.873-0.365,1.618-1.088,2.245c-0.73,0.624-1.803,0.937-3.229,0.937c-1.291,0-2.309-0.261-3.063-0.786
				C481.27,499.64,480.779,498.926,480.547,498.026z"/>
		</g>
		<g>
			<path fill="#FFFFFF" d="M366.451,530.586v2.331h-8.791c0.094-0.878,0.383-1.714,0.855-2.503c0.479-0.791,1.42-1.835,2.82-3.138
				c1.131-1.053,1.826-1.768,2.08-2.143c0.346-0.521,0.518-1.03,0.518-1.538c0-0.558-0.148-0.987-0.451-1.287
				c-0.301-0.299-0.715-0.451-1.244-0.451c-0.52,0-0.939,0.159-1.25,0.47c-0.309,0.319-0.486,0.84-0.533,1.575l-2.5-0.253
				c0.15-1.376,0.615-2.37,1.4-2.968c0.783-0.605,1.768-0.904,2.945-0.904c1.291,0,2.309,0.349,3.043,1.043
				c0.738,0.7,1.107,1.563,1.107,2.6c0,0.587-0.109,1.146-0.318,1.683c-0.211,0.531-0.545,1.09-1.002,1.673
				c-0.305,0.388-0.854,0.945-1.643,1.672c-0.791,0.722-1.293,1.204-1.506,1.446c-0.211,0.238-0.381,0.467-0.512,0.692H366.451z"/>
			<path fill="#FFFFFF" d="M372.389,519.777c1.268,0,2.258,0.451,2.973,1.358c0.852,1.068,1.277,2.849,1.277,5.329
				c0,2.472-0.426,4.253-1.285,5.337c-0.711,0.89-1.697,1.341-2.965,1.341c-1.271,0-2.295-0.489-3.078-1.469
				c-0.781-0.979-1.17-2.726-1.17-5.237c0-2.465,0.428-4.235,1.283-5.32C370.135,520.22,371.121,519.777,372.389,519.777z
				 M372.389,521.857c-0.303,0-0.574,0.097-0.813,0.291c-0.236,0.194-0.42,0.538-0.553,1.039c-0.174,0.648-0.26,1.74-0.26,3.277
				c0,1.535,0.078,2.588,0.234,3.164c0.15,0.575,0.346,0.957,0.584,1.147c0.234,0.189,0.504,0.283,0.807,0.283
				s0.572-0.094,0.813-0.288c0.236-0.194,0.42-0.539,0.551-1.043c0.172-0.642,0.262-1.729,0.262-3.264
				c0-1.537-0.078-2.59-0.232-3.164c-0.152-0.576-0.348-0.958-0.584-1.152S372.691,521.857,372.389,521.857z"/>
			<path fill="#FFFFFF" d="M382.555,519.777c1.266,0,2.262,0.451,2.977,1.358c0.852,1.068,1.277,2.849,1.277,5.329
				c0,2.472-0.426,4.253-1.287,5.337c-0.713,0.89-1.701,1.341-2.967,1.341c-1.271,0-2.297-0.489-3.078-1.469
				c-0.777-0.979-1.164-2.726-1.164-5.237c0-2.465,0.426-4.235,1.281-5.32C380.301,520.22,381.289,519.777,382.555,519.777z
				 M382.555,521.857c-0.305,0-0.576,0.097-0.809,0.291c-0.24,0.194-0.424,0.538-0.555,1.039c-0.176,0.648-0.26,1.74-0.26,3.277
				c0,1.535,0.076,2.588,0.232,3.164c0.156,0.575,0.35,0.957,0.582,1.147c0.238,0.189,0.504,0.283,0.809,0.283
				c0.303,0,0.574-0.094,0.814-0.288c0.234-0.194,0.42-0.539,0.553-1.043c0.172-0.642,0.256-1.729,0.256-3.264
				c0-1.537-0.076-2.59-0.232-3.164c-0.15-0.576-0.346-0.958-0.582-1.152C383.129,521.954,382.857,521.857,382.555,521.857z"/>
			<path fill="#FFFFFF" d="M399.59,529.902l2.494,0.42c-0.316,0.916-0.822,1.611-1.52,2.09c-0.689,0.482-1.557,0.719-2.598,0.719
				c-1.648,0-2.869-0.54-3.662-1.611c-0.625-0.864-0.936-1.953-0.936-3.271c0-1.57,0.408-2.804,1.232-3.69
				c0.824-0.893,1.855-1.335,3.115-1.335c1.406,0,2.52,0.467,3.334,1.397c0.816,0.932,1.205,2.357,1.172,4.278h-6.285
				c0.02,0.746,0.223,1.326,0.607,1.741c0.389,0.413,0.869,0.617,1.445,0.617c0.396,0,0.723-0.104,0.994-0.32
				C399.248,530.722,399.449,530.376,399.59,529.902z M399.73,527.366c-0.016-0.727-0.203-1.278-0.561-1.654
				c-0.357-0.384-0.793-0.571-1.305-0.571c-0.543,0-0.994,0.203-1.352,0.601s-0.537,0.941-0.529,1.625H399.73z"/>
			<path fill="#FFFFFF" d="M404.084,523.439h2.311v1.29c0.824-1.002,1.813-1.507,2.953-1.507c0.607,0,1.131,0.123,1.578,0.373
				c0.445,0.251,0.813,0.629,1.096,1.134c0.424-0.505,0.869-0.883,1.352-1.134c0.482-0.25,1-0.373,1.543-0.373
				c0.701,0,1.287,0.139,1.77,0.427c0.48,0.279,0.842,0.695,1.078,1.243c0.176,0.404,0.262,1.059,0.262,1.964v6.061h-2.512v-5.419
				c0-0.939-0.084-1.547-0.254-1.817c-0.234-0.361-0.592-0.54-1.074-0.54c-0.348,0-0.68,0.109-0.986,0.319
				c-0.311,0.221-0.537,0.531-0.672,0.947c-0.137,0.415-0.209,1.068-0.209,1.958v4.552h-2.508v-5.193
				c0-0.925-0.043-1.52-0.137-1.786c-0.086-0.266-0.225-0.469-0.41-0.603c-0.188-0.128-0.443-0.194-0.762-0.194
				c-0.389,0-0.74,0.106-1.047,0.313c-0.311,0.212-0.533,0.51-0.664,0.902c-0.133,0.396-0.201,1.046-0.201,1.955v4.606h-2.506
				V523.439z"/>
			<path fill="#FFFFFF" d="M420.449,523.439h2.344v1.391c0.303-0.477,0.717-0.861,1.229-1.162c0.52-0.298,1.096-0.445,1.725-0.445
				c1.102,0,2.037,0.436,2.803,1.294c0.764,0.862,1.15,2.064,1.15,3.607c0,1.582-0.387,2.813-1.162,3.69
				c-0.77,0.877-1.709,1.316-2.807,1.316c-0.527,0-1.002-0.104-1.426-0.314c-0.422-0.206-0.873-0.56-1.34-1.068v4.777h-2.516
				V523.439z M422.934,528.019c0,1.065,0.213,1.853,0.637,2.357c0.42,0.514,0.934,0.765,1.543,0.765
				c0.584,0,1.068-0.232,1.455-0.698c0.383-0.471,0.576-1.233,0.576-2.299c0-0.996-0.197-1.733-0.598-2.215
				c-0.396-0.484-0.891-0.726-1.477-0.726c-0.613,0-1.123,0.238-1.531,0.71C423.135,526.387,422.934,527.087,422.934,528.019z"/>
			<path fill="#FFFFFF" d="M431.691,532.917v-13.086h2.506v13.086H431.691z"/>
			<path fill="#FFFFFF" d="M436.188,528.043c0-0.833,0.207-1.641,0.615-2.418c0.412-0.779,0.994-1.377,1.748-1.789
				c0.754-0.409,1.598-0.613,2.521-0.613c1.436,0,2.613,0.467,3.529,1.397c0.914,0.932,1.371,2.109,1.371,3.53
				c0,1.432-0.461,2.621-1.387,3.566c-0.926,0.943-2.092,1.414-3.494,1.414c-0.865,0-1.701-0.198-2.486-0.587
				c-0.793-0.396-1.391-0.971-1.803-1.729C436.395,530.057,436.188,529.131,436.188,528.043z M438.76,528.175
				c0,0.94,0.223,1.665,0.67,2.163c0.445,0.501,0.998,0.753,1.652,0.753s1.203-0.252,1.646-0.753
				c0.443-0.498,0.668-1.227,0.668-2.179c0-0.925-0.225-1.64-0.668-2.141s-0.992-0.753-1.646-0.753s-1.207,0.252-1.652,0.753
				C438.982,526.52,438.76,527.238,438.76,528.175z"/>
			<path fill="#FFFFFF" d="M446.746,523.439h2.674l2.266,6.73l2.215-6.73h2.596l-3.346,9.12l-0.598,1.651
				c-0.223,0.559-0.432,0.977-0.627,1.269c-0.201,0.291-0.432,0.529-0.691,0.711c-0.256,0.179-0.574,0.319-0.951,0.42
				c-0.377,0.103-0.805,0.156-1.283,0.156c-0.482,0-0.955-0.054-1.422-0.156l-0.221-1.96c0.393,0.08,0.746,0.119,1.059,0.119
				c0.584,0,1.02-0.173,1.299-0.515c0.281-0.347,0.494-0.782,0.641-1.31L446.746,523.439z"/>
			<path fill="#FFFFFF" d="M463.598,529.902l2.494,0.42c-0.32,0.916-0.824,1.611-1.52,2.09c-0.693,0.482-1.561,0.719-2.602,0.719
				c-1.646,0-2.867-0.54-3.66-1.611c-0.625-0.864-0.936-1.953-0.936-3.271c0-1.57,0.408-2.804,1.23-3.69
				c0.824-0.893,1.859-1.335,3.117-1.335c1.408,0,2.518,0.467,3.334,1.397c0.816,0.932,1.205,2.357,1.17,4.278h-6.283
				c0.02,0.746,0.221,1.326,0.605,1.741c0.389,0.413,0.871,0.617,1.447,0.617c0.395,0,0.721-0.104,0.994-0.32
				C463.254,530.722,463.457,530.376,463.598,529.902z M463.736,527.366c-0.016-0.727-0.201-1.278-0.559-1.654
				c-0.359-0.384-0.793-0.571-1.307-0.571c-0.545,0-0.996,0.203-1.354,0.601s-0.535,0.941-0.527,1.625H463.736z"/>
			<path fill="#FFFFFF" d="M473.762,529.902l2.498,0.42c-0.318,0.916-0.828,1.611-1.523,2.09c-0.691,0.482-1.557,0.719-2.594,0.719
				c-1.648,0-2.869-0.54-3.662-1.611c-0.625-0.864-0.936-1.953-0.936-3.271c0-1.57,0.408-2.804,1.232-3.69
				c0.818-0.893,1.857-1.335,3.111-1.335c1.41,0,2.521,0.467,3.338,1.397c0.816,0.932,1.205,2.357,1.166,4.278h-6.281
				c0.016,0.746,0.219,1.326,0.607,1.741c0.389,0.413,0.871,0.617,1.445,0.617c0.393,0,0.723-0.104,0.99-0.32
				C473.424,530.722,473.625,530.376,473.762,529.902z M473.906,527.366c-0.016-0.727-0.207-1.278-0.561-1.654
				c-0.357-0.384-0.793-0.571-1.307-0.571c-0.547,0-0.998,0.203-1.355,0.601c-0.355,0.397-0.531,0.941-0.525,1.625H473.906z"/>
			<path fill="#FFFFFF" d="M477.559,530.213l2.518-0.382c0.105,0.486,0.322,0.855,0.648,1.112c0.328,0.248,0.785,0.376,1.375,0.376
				c0.65,0,1.137-0.119,1.463-0.357c0.221-0.166,0.334-0.388,0.334-0.667c0-0.191-0.063-0.346-0.18-0.474
				c-0.123-0.123-0.404-0.232-0.84-0.333c-2.02-0.442-3.303-0.855-3.846-1.22c-0.75-0.514-1.123-1.225-1.123-2.134
				c0-0.822,0.322-1.515,0.971-2.073c0.648-0.56,1.652-0.839,3.018-0.839c1.297,0,2.26,0.21,2.889,0.637
				c0.635,0.42,1.068,1.046,1.307,1.875l-2.367,0.436c-0.1-0.37-0.293-0.652-0.574-0.851c-0.283-0.194-0.684-0.295-1.213-0.295
				c-0.656,0-1.131,0.094-1.414,0.279c-0.193,0.129-0.287,0.299-0.287,0.509c0,0.179,0.084,0.329,0.248,0.458
				c0.225,0.163,1.01,0.396,2.342,0.698c1.338,0.308,2.271,0.677,2.799,1.121c0.529,0.442,0.789,1.063,0.789,1.866
				c0,0.867-0.361,1.617-1.092,2.238c-0.727,0.622-1.799,0.937-3.223,0.937c-1.289,0-2.313-0.261-3.064-0.784
				C478.285,531.821,477.791,531.115,477.559,530.213z"/>
		</g>
		<g>
			<path fill="#FFFFFF" d="M364.4,562.775h-2.512v-9.455c-0.914,0.855-1.994,1.493-3.238,1.904v-2.279
				c0.658-0.217,1.365-0.621,2.135-1.22c0.77-0.598,1.291-1.294,1.578-2.092h2.037V562.775z"/>
			<path fill="#FFFFFF" d="M376.648,552.892l-2.43,0.269c-0.063-0.503-0.219-0.867-0.467-1.108
				c-0.248-0.237-0.574-0.357-0.971-0.357c-0.529,0-0.98,0.241-1.344,0.715c-0.367,0.474-0.596,1.472-0.693,2.972
				c0.627-0.735,1.404-1.105,2.332-1.105c1.047,0,1.943,0.397,2.689,1.197c0.75,0.798,1.123,1.827,1.123,3.088
				c0,1.337-0.389,2.413-1.182,3.221c-0.785,0.815-1.791,1.22-3.023,1.22c-1.32,0-2.404-0.514-3.26-1.542
				c-0.848-1.028-1.275-2.711-1.275-5.05c0-2.396,0.443-4.128,1.33-5.189c0.885-1.057,2.035-1.586,3.453-1.586
				c0.992,0,1.814,0.281,2.469,0.833C376.057,551.025,376.469,551.834,376.648,552.892z M370.961,558.366
				c0,0.817,0.188,1.446,0.561,1.889s0.805,0.661,1.285,0.661c0.465,0,0.854-0.179,1.162-0.545c0.309-0.36,0.465-0.955,0.465-1.783
				c0-0.852-0.168-1.475-0.502-1.871c-0.334-0.396-0.746-0.59-1.248-0.59c-0.482,0-0.889,0.186-1.225,0.563
				C371.125,557.067,370.961,557.629,370.961,558.366z"/>
			<path fill="#FFFFFF" d="M382.555,549.634c1.266,0,2.262,0.451,2.977,1.356c0.852,1.068,1.277,2.851,1.277,5.331
				c0,2.474-0.426,4.253-1.287,5.337c-0.713,0.892-1.701,1.343-2.967,1.343c-1.271,0-2.297-0.491-3.078-1.471
				c-0.777-0.98-1.164-2.726-1.164-5.237c0-2.463,0.426-4.237,1.281-5.321C380.301,550.078,381.289,549.634,382.555,549.634z
				 M382.555,551.714c-0.305,0-0.576,0.097-0.809,0.291c-0.24,0.194-0.424,0.536-0.555,1.039c-0.176,0.649-0.26,1.742-0.26,3.277
				c0,1.536,0.076,2.59,0.232,3.164c0.156,0.575,0.35,0.955,0.582,1.146c0.238,0.19,0.504,0.284,0.809,0.284
				c0.303,0,0.574-0.094,0.814-0.288c0.234-0.194,0.42-0.539,0.553-1.041c0.172-0.642,0.256-1.729,0.256-3.266
				c0-1.535-0.076-2.588-0.232-3.164c-0.15-0.576-0.346-0.958-0.582-1.152C383.129,551.811,382.857,551.714,382.555,551.714z"/>
			<path fill="#FFFFFF" d="M388.959,560.268h2.506v1.79c0,0.729-0.063,1.301-0.188,1.721c-0.123,0.42-0.359,0.796-0.707,1.131
				c-0.35,0.329-0.793,0.593-1.328,0.784l-0.49-1.037c0.506-0.163,0.867-0.397,1.08-0.684c0.215-0.297,0.326-0.692,0.342-1.197
				h-1.215V560.268z"/>
			<path fill="#FFFFFF" d="M397.803,549.634c1.268,0,2.262,0.451,2.973,1.356c0.852,1.068,1.277,2.851,1.277,5.331
				c0,2.474-0.426,4.253-1.285,5.337c-0.711,0.892-1.697,1.343-2.965,1.343c-1.271,0-2.295-0.491-3.078-1.471
				c-0.781-0.98-1.17-2.726-1.17-5.237c0-2.463,0.428-4.237,1.287-5.321C395.549,550.078,396.535,549.634,397.803,549.634z
				 M397.803,551.714c-0.303,0-0.574,0.097-0.807,0.291c-0.242,0.194-0.426,0.536-0.557,1.039c-0.176,0.649-0.262,1.742-0.262,3.277
				c0,1.536,0.078,2.59,0.234,3.164c0.154,0.575,0.35,0.955,0.584,1.146c0.234,0.19,0.504,0.284,0.807,0.284
				s0.574-0.094,0.816-0.288c0.232-0.194,0.42-0.539,0.551-1.041c0.172-0.642,0.258-1.729,0.258-3.266
				c0-1.535-0.078-2.588-0.232-3.164c-0.152-0.576-0.348-0.958-0.586-1.152C398.377,551.811,398.105,551.714,397.803,551.714z"/>
			<path fill="#FFFFFF" d="M407.973,549.634c1.266,0,2.258,0.451,2.969,1.356c0.855,1.068,1.279,2.851,1.279,5.331
				c0,2.474-0.43,4.253-1.287,5.337c-0.709,0.892-1.695,1.343-2.961,1.343c-1.275,0-2.301-0.491-3.078-1.471
				c-0.779-0.98-1.168-2.726-1.168-5.237c0-2.463,0.426-4.237,1.285-5.321C405.719,550.078,406.705,549.634,407.973,549.634z
				 M407.973,551.714c-0.305,0-0.574,0.097-0.813,0.291s-0.424,0.536-0.555,1.039c-0.172,0.649-0.258,1.742-0.258,3.277
				c0,1.536,0.078,2.59,0.232,3.164c0.156,0.575,0.352,0.955,0.584,1.146c0.234,0.19,0.504,0.284,0.809,0.284
				c0.303,0,0.576-0.094,0.811-0.288c0.238-0.194,0.426-0.539,0.557-1.041c0.172-0.642,0.258-1.729,0.258-3.266
				c0-1.535-0.078-2.588-0.234-3.164c-0.154-0.576-0.35-0.958-0.582-1.152S408.275,551.714,407.973,551.714z"/>
			<path fill="#FFFFFF" d="M418.143,549.634c1.266,0,2.254,0.451,2.967,1.356c0.855,1.068,1.279,2.851,1.279,5.331
				c0,2.474-0.426,4.253-1.285,5.337c-0.707,0.892-1.695,1.343-2.961,1.343c-1.275,0-2.301-0.491-3.078-1.471
				c-0.785-0.98-1.174-2.726-1.174-5.237c0-2.463,0.428-4.237,1.285-5.321C415.887,550.078,416.875,549.634,418.143,549.634z
				 M418.143,551.714c-0.305,0-0.576,0.097-0.816,0.291c-0.232,0.194-0.42,0.536-0.553,1.039c-0.17,0.649-0.256,1.742-0.256,3.277
				c0,1.536,0.078,2.59,0.234,3.164c0.15,0.575,0.344,0.955,0.582,1.146c0.232,0.19,0.504,0.284,0.809,0.284
				c0.303,0,0.57-0.094,0.809-0.288c0.24-0.194,0.422-0.539,0.555-1.041c0.172-0.642,0.26-1.729,0.26-3.266
				c0-1.535-0.078-2.588-0.232-3.164c-0.156-0.576-0.35-0.958-0.582-1.152C418.713,551.811,418.445,551.714,418.143,551.714z"/>
			<path fill="#FFFFFF" d="M435.17,559.758l2.502,0.419c-0.322,0.918-0.83,1.613-1.521,2.093c-0.693,0.481-1.564,0.72-2.602,0.72
				c-1.646,0-2.867-0.54-3.66-1.615c-0.629-0.862-0.939-1.95-0.939-3.268c0-1.572,0.41-2.804,1.232-3.69
				c0.822-0.893,1.863-1.337,3.117-1.337c1.412,0,2.525,0.467,3.34,1.399c0.813,0.929,1.205,2.354,1.166,4.276h-6.279
				c0.016,0.746,0.219,1.325,0.607,1.741c0.383,0.411,0.865,0.618,1.443,0.618c0.389,0,0.725-0.104,0.988-0.323
				C434.836,560.578,435.037,560.23,435.17,559.758z M435.318,557.222c-0.02-0.726-0.209-1.278-0.563-1.655
				c-0.357-0.38-0.793-0.567-1.303-0.567c-0.553,0-1.004,0.203-1.361,0.599c-0.357,0.397-0.529,0.94-0.523,1.624H435.318z"/>
			<path fill="#FFFFFF" d="M438.645,562.775l3.424-4.883l-3.281-4.595h3.063l1.68,2.604l1.768-2.604h2.941l-3.209,4.485l3.504,4.992
				h-3.078l-1.926-2.939l-1.943,2.939H438.645z"/>
			<path fill="#FFFFFF" d="M449.949,553.298h2.338v1.391c0.303-0.479,0.711-0.863,1.232-1.162c0.518-0.3,1.088-0.447,1.721-0.447
				c1.1,0,2.033,0.436,2.803,1.294c0.773,0.864,1.154,2.064,1.154,3.608c0,1.582-0.389,2.81-1.162,3.688
				c-0.777,0.881-1.709,1.32-2.813,1.32c-0.521,0-0.996-0.106-1.424-0.315c-0.426-0.205-0.869-0.561-1.344-1.07v4.778h-2.506
				V553.298z M452.432,557.877c0,1.065,0.209,1.85,0.629,2.354c0.424,0.514,0.939,0.768,1.547,0.768
				c0.584,0,1.066-0.234,1.455-0.699c0.387-0.472,0.582-1.233,0.582-2.297c0-0.997-0.203-1.736-0.598-2.217
				c-0.402-0.482-0.895-0.724-1.486-0.724c-0.613,0-1.119,0.237-1.523,0.708C452.635,556.243,452.432,556.942,452.432,557.877z"/>
			<path fill="#FFFFFF" d="M466.674,559.758l2.502,0.419c-0.32,0.918-0.828,1.613-1.518,2.093c-0.695,0.481-1.566,0.72-2.609,0.72
				c-1.648,0-2.867-0.54-3.656-1.615c-0.625-0.862-0.938-1.95-0.938-3.268c0-1.572,0.414-2.804,1.229-3.69
				c0.824-0.893,1.861-1.337,3.117-1.337c1.41,0,2.521,0.467,3.342,1.399c0.813,0.929,1.205,2.354,1.17,4.276h-6.289
				c0.02,0.746,0.223,1.325,0.607,1.741c0.385,0.411,0.867,0.618,1.445,0.618c0.393,0,0.725-0.104,0.99-0.323
				C466.336,560.578,466.537,560.23,466.674,559.758z M466.818,557.222c-0.021-0.726-0.207-1.278-0.564-1.655
				c-0.357-0.38-0.793-0.567-1.303-0.567c-0.547,0-0.996,0.203-1.354,0.599c-0.359,0.397-0.533,0.94-0.529,1.624H466.818z"/>
			<path fill="#FFFFFF" d="M473.754,562.775h-2.508v-9.478h2.334v1.344c0.395-0.637,0.752-1.056,1.072-1.259
				c0.318-0.201,0.68-0.304,1.084-0.304c0.57,0,1.127,0.159,1.654,0.476l-0.777,2.184c-0.424-0.272-0.818-0.409-1.182-0.409
				c-0.354,0-0.648,0.097-0.889,0.291c-0.248,0.194-0.439,0.545-0.58,1.05c-0.139,0.506-0.209,1.564-0.209,3.178V562.775z"/>
			<path fill="#FFFFFF" d="M482.816,553.298v1.996h-1.713v3.818c0,0.777,0.016,1.228,0.049,1.353
				c0.031,0.132,0.105,0.232,0.221,0.319c0.119,0.085,0.258,0.123,0.426,0.123c0.232,0,0.566-0.078,1.01-0.241l0.209,1.946
				c-0.582,0.252-1.244,0.377-1.977,0.377c-0.455,0-0.859-0.075-1.225-0.229c-0.361-0.147-0.631-0.347-0.797-0.59
				c-0.172-0.241-0.287-0.566-0.354-0.975c-0.055-0.295-0.078-0.881-0.078-1.768v-4.134h-1.154v-1.996h1.154v-1.888l2.516-1.464
				v3.352H482.816z"/>
			<path fill="#FFFFFF" d="M483.67,560.068l2.521-0.381c0.109,0.486,0.324,0.855,0.654,1.112c0.326,0.248,0.785,0.376,1.371,0.376
				c0.65,0,1.139-0.121,1.465-0.356c0.217-0.169,0.326-0.389,0.326-0.67c0-0.189-0.057-0.345-0.178-0.474
				c-0.125-0.119-0.404-0.229-0.834-0.329c-2.027-0.444-3.313-0.855-3.854-1.222c-0.75-0.512-1.123-1.227-1.123-2.135
				c0-0.819,0.324-1.512,0.973-2.071c0.648-0.559,1.66-0.84,3.02-0.84c1.297,0,2.262,0.21,2.891,0.639
				c0.629,0.419,1.064,1.044,1.305,1.873l-2.365,0.434c-0.1-0.368-0.291-0.652-0.576-0.847c-0.283-0.194-0.688-0.295-1.207-0.295
				c-0.66,0-1.137,0.094-1.422,0.279c-0.188,0.129-0.285,0.295-0.285,0.505c0,0.179,0.082,0.331,0.254,0.46
				c0.225,0.163,1.002,0.396,2.338,0.699c1.338,0.307,2.271,0.678,2.799,1.12c0.521,0.444,0.785,1.065,0.785,1.866
				c0,0.866-0.367,1.615-1.088,2.238c-0.727,0.623-1.801,0.938-3.223,0.938c-1.289,0-2.311-0.261-3.068-0.786
				C484.393,561.678,483.904,560.97,483.67,560.068z"/>
		</g>
	</g>
</g>
<g id="_x30_1" display="none">
	<g display="inline">
		<g>
			<path fill="#FFFFFF" d="M297.525,281.256h42.92c8.496,0,14.832,0.355,19.006,1.062c4.175,0.708,7.91,2.186,11.206,4.431
				c3.296,2.247,6.042,5.237,8.24,8.972s3.296,7.923,3.296,12.561c0,5.03-1.355,9.644-4.065,13.843
				c-2.71,4.2-6.385,7.35-11.023,9.448c6.542,1.904,11.572,5.152,15.088,9.741c3.516,4.59,5.273,9.986,5.273,16.187
				c0,4.883-1.135,9.631-3.406,14.244c-2.271,4.615-5.372,8.303-9.302,11.061c-3.931,2.76-8.778,4.457-14.539,5.09
				c-3.614,0.393-12.33,0.635-26.147,0.732h-36.548V281.256z M319.205,299.127v24.829h14.209c8.447,0,13.696-0.121,15.747-0.366
				c3.71-0.439,6.628-1.721,8.752-3.845s3.186-4.918,3.186-8.386c0-3.32-0.916-6.017-2.747-8.093
				c-1.831-2.075-4.554-3.333-8.167-3.772c-2.149-0.244-8.326-0.366-18.53-0.366H319.205z M319.205,341.828v28.711h20.068
				c7.812,0,12.768-0.221,14.868-0.66c3.223-0.586,5.847-2.014,7.874-4.285c2.025-2.27,3.04-5.309,3.04-9.117
				c0-3.223-0.782-5.958-2.344-8.204c-1.563-2.245-3.821-3.882-6.775-4.907c-2.955-1.025-9.364-1.538-19.226-1.538H319.205z"/>
			<path fill="#FFFFFF" d="M474.479,349.152l21.021,6.665c-3.223,11.719-8.582,20.424-16.078,26.111
				c-7.494,5.689-17.004,8.533-28.528,8.533c-14.258,0-25.977-4.871-35.156-14.613c-9.181-9.74-13.77-23.059-13.77-39.953
				c0-17.871,4.614-31.75,13.843-41.638s21.361-14.832,36.401-14.832c13.135,0,23.805,3.882,32.008,11.646
				c4.881,4.59,8.543,11.182,10.986,19.775l-21.461,5.127c-1.27-5.566-3.918-9.961-7.947-13.184
				c-4.027-3.223-8.924-4.834-14.684-4.834c-7.96,0-14.418,2.856-19.374,8.569c-4.957,5.713-7.434,14.967-7.434,27.759
				c0,13.575,2.441,23.244,7.324,29.003c4.882,5.762,11.23,8.643,19.043,8.643c5.76,0,10.717-1.83,14.868-5.492
				S472.672,357.014,474.479,349.152z"/>
			<path fill="#FFFFFF" d="M582.805,349.152l21.02,6.665c-3.223,11.719-8.582,20.424-16.076,26.111
				c-7.496,5.689-17.004,8.533-28.527,8.533c-14.258,0-25.977-4.871-35.156-14.613c-9.182-9.74-13.77-23.059-13.77-39.953
				c0-17.871,4.613-31.75,13.842-41.638s21.361-14.832,36.402-14.832c13.135,0,23.803,3.882,32.006,11.646
				c4.883,4.59,8.545,11.182,10.986,19.775l-21.459,5.127c-1.271-5.566-3.92-9.961-7.947-13.184
				c-4.029-3.223-8.924-4.834-14.686-4.834c-7.959,0-14.416,2.856-19.373,8.569c-4.955,5.713-7.434,14.967-7.434,27.759
				c0,13.575,2.441,23.244,7.324,29.003c4.883,5.762,11.23,8.643,19.043,8.643c5.762,0,10.719-1.83,14.869-5.492
				C578.018,362.775,580.998,357.014,582.805,349.152z"/>
		</g>
		<g>
			<path fill="#FFFFFF" d="M296.176,403.912h6.549c1.296,0,2.263,0.053,2.9,0.162c0.637,0.107,1.207,0.332,1.71,0.676
				c0.503,0.342,0.922,0.799,1.257,1.369c0.335,0.568,0.503,1.209,0.503,1.916c0,0.768-0.207,1.471-0.621,2.113
				c-0.414,0.641-0.974,1.121-1.682,1.441c0.998,0.289,1.766,0.785,2.302,1.486c0.536,0.699,0.805,1.523,0.805,2.469
				c0,0.746-0.173,1.471-0.52,2.174c-0.346,0.705-0.819,1.268-1.419,1.688c-0.6,0.422-1.339,0.68-2.218,0.777
				c-0.551,0.061-1.881,0.098-3.99,0.111h-5.577V403.912z M299.484,406.639v3.789h2.168c1.289,0,2.09-0.02,2.403-0.057
				c0.566-0.066,1.011-0.264,1.335-0.586c0.324-0.324,0.486-0.752,0.486-1.281c0-0.506-0.14-0.918-0.419-1.234
				c-0.279-0.316-0.695-0.508-1.246-0.576c-0.328-0.037-1.271-0.055-2.828-0.055H299.484z M299.484,413.154v4.381h3.063
				c1.192,0,1.948-0.033,2.269-0.102c0.492-0.088,0.892-0.307,1.202-0.652c0.309-0.348,0.464-0.811,0.464-1.393
				c0-0.492-0.12-0.908-0.358-1.252c-0.238-0.342-0.583-0.592-1.034-0.748s-1.429-0.234-2.934-0.234H299.484z"/>
			<path fill="#FFFFFF" d="M320.484,420.295v-1.777c-0.432,0.635-1,1.133-1.705,1.498s-1.447,0.549-2.229,0.549
				c-0.797,0-1.513-0.176-2.146-0.525c-0.633-0.352-1.091-0.842-1.375-1.477c-0.283-0.633-0.425-1.508-0.425-2.625v-7.512h3.141
				v5.455c0,1.668,0.058,2.691,0.173,3.066c0.115,0.377,0.326,0.676,0.631,0.895c0.306,0.221,0.693,0.33,1.162,0.33
				c0.537,0,1.017-0.146,1.442-0.441s0.715-0.66,0.872-1.096c0.157-0.436,0.235-1.502,0.235-3.201v-5.008h3.141v11.869H320.484z"/>
			<path fill="#FFFFFF" d="M325.547,416.908l3.151-0.48c0.134,0.611,0.406,1.076,0.816,1.393s0.983,0.475,1.721,0.475
				c0.812,0,1.423-0.148,1.833-0.447c0.275-0.209,0.414-0.488,0.414-0.838c0-0.238-0.075-0.436-0.224-0.592
				c-0.157-0.15-0.507-0.287-1.051-0.414c-2.533-0.559-4.139-1.068-4.817-1.531c-0.938-0.641-1.408-1.531-1.408-2.672
				c0-1.027,0.406-1.893,1.218-2.592c0.812-0.701,2.071-1.051,3.778-1.051c1.624,0,2.831,0.264,3.621,0.793
				c0.79,0.529,1.333,1.313,1.631,2.348l-2.961,0.547c-0.127-0.461-0.367-0.814-0.721-1.061c-0.354-0.246-0.858-0.369-1.514-0.369
				c-0.827,0-1.419,0.115-1.777,0.346c-0.239,0.164-0.358,0.377-0.358,0.637c0,0.225,0.104,0.414,0.313,0.57
				c0.283,0.209,1.261,0.504,2.934,0.883c1.673,0.381,2.841,0.846,3.504,1.398c0.656,0.559,0.983,1.336,0.983,2.334
				c0,1.09-0.455,2.023-1.363,2.807c-0.909,0.781-2.254,1.174-4.035,1.174c-1.617,0-2.896-0.328-3.839-0.984
				C326.454,418.924,325.838,418.033,325.547,416.908z"/>
			<path fill="#FFFFFF" d="M339.383,406.816v-2.904h3.14v2.904H339.383z M339.383,420.295v-11.869h3.14v11.869H339.383z"/>
			<path fill="#FFFFFF" d="M356.539,420.295h-3.141v-6.057c0-1.281-0.067-2.111-0.201-2.486c-0.134-0.377-0.352-0.67-0.654-0.879
				c-0.302-0.207-0.665-0.313-1.089-0.313c-0.544,0-1.032,0.15-1.464,0.447c-0.432,0.299-0.728,0.693-0.888,1.186
				c-0.161,0.49-0.24,1.4-0.24,2.727v5.375h-3.141v-11.869h2.917v1.744c1.036-1.342,2.339-2.012,3.912-2.012
				c0.693,0,1.326,0.125,1.9,0.375s1.008,0.568,1.302,0.955c0.294,0.387,0.499,0.826,0.614,1.318
				c0.116,0.492,0.173,1.195,0.173,2.113V420.295z"/>
			<path fill="#FFFFFF" d="M366.597,416.518l3.129,0.525c-0.402,1.148-1.038,2.021-1.905,2.621c-0.868,0.6-1.954,0.9-3.258,0.9
				c-2.063,0-3.591-0.676-4.582-2.023c-0.782-1.08-1.173-2.443-1.173-4.09c0-1.969,0.514-3.508,1.542-4.623
				c1.028-1.113,2.329-1.67,3.901-1.67c1.766,0,3.159,0.582,4.18,1.748c1.021,1.168,1.509,2.953,1.464,5.359h-7.868
				c0.022,0.932,0.275,1.656,0.76,2.174s1.088,0.777,1.811,0.777c0.492,0,0.905-0.135,1.241-0.402
				C366.172,417.547,366.426,417.113,366.597,416.518z M366.776,413.344c-0.022-0.908-0.257-1.6-0.704-2.072
				c-0.447-0.475-0.991-0.711-1.631-0.711c-0.686,0-1.252,0.25-1.699,0.75c-0.447,0.498-0.667,1.176-0.66,2.033H366.776z"/>
			<path fill="#FFFFFF" d="M371.347,416.908l3.151-0.48c0.134,0.611,0.406,1.076,0.816,1.393s0.983,0.475,1.721,0.475
				c0.812,0,1.423-0.148,1.833-0.447c0.275-0.209,0.414-0.488,0.414-0.838c0-0.238-0.075-0.436-0.224-0.592
				c-0.157-0.15-0.507-0.287-1.051-0.414c-2.533-0.559-4.139-1.068-4.817-1.531c-0.938-0.641-1.408-1.531-1.408-2.672
				c0-1.027,0.406-1.893,1.218-2.592c0.812-0.701,2.071-1.051,3.778-1.051c1.624,0,2.831,0.264,3.621,0.793
				c0.79,0.529,1.333,1.313,1.631,2.348l-2.961,0.547c-0.127-0.461-0.367-0.814-0.721-1.061c-0.354-0.246-0.858-0.369-1.514-0.369
				c-0.827,0-1.419,0.115-1.777,0.346c-0.239,0.164-0.358,0.377-0.358,0.637c0,0.225,0.104,0.414,0.313,0.57
				c0.283,0.209,1.261,0.504,2.934,0.883c1.673,0.381,2.841,0.846,3.504,1.398c0.656,0.559,0.983,1.336,0.983,2.334
				c0,1.09-0.455,2.023-1.363,2.807c-0.909,0.781-2.254,1.174-4.035,1.174c-1.617,0-2.896-0.328-3.839-0.984
				C372.254,418.924,371.638,418.033,371.347,416.908z"/>
			<path fill="#FFFFFF" d="M384.077,416.908l3.151-0.48c0.134,0.611,0.406,1.076,0.816,1.393s0.983,0.475,1.721,0.475
				c0.812,0,1.423-0.148,1.833-0.447c0.275-0.209,0.414-0.488,0.414-0.838c0-0.238-0.075-0.436-0.224-0.592
				c-0.157-0.15-0.507-0.287-1.051-0.414c-2.533-0.559-4.139-1.068-4.817-1.531c-0.938-0.641-1.408-1.531-1.408-2.672
				c0-1.027,0.406-1.893,1.218-2.592c0.812-0.701,2.071-1.051,3.778-1.051c1.624,0,2.831,0.264,3.621,0.793
				c0.79,0.529,1.333,1.313,1.631,2.348l-2.961,0.547c-0.127-0.461-0.367-0.814-0.721-1.061c-0.354-0.246-0.858-0.369-1.514-0.369
				c-0.827,0-1.419,0.115-1.777,0.346c-0.239,0.164-0.358,0.377-0.358,0.637c0,0.225,0.104,0.414,0.313,0.57
				c0.283,0.209,1.261,0.504,2.934,0.883c1.673,0.381,2.841,0.846,3.504,1.398c0.656,0.559,0.983,1.336,0.983,2.334
				c0,1.09-0.455,2.023-1.363,2.807c-0.909,0.781-2.254,1.174-4.035,1.174c-1.617,0-2.896-0.328-3.839-0.984
				C384.983,418.924,384.367,418.033,384.077,416.908z"/>
			<path fill="#FFFFFF" d="M414.777,414.271l3.208,1.018c-0.492,1.787-1.31,3.115-2.453,3.984c-1.144,0.867-2.595,1.301-4.353,1.301
				c-2.176,0-3.964-0.742-5.365-2.229s-2.101-3.52-2.101-6.098c0-2.727,0.704-4.844,2.112-6.354c1.408-1.508,3.26-2.264,5.555-2.264
				c2.004,0,3.632,0.594,4.884,1.777c0.745,0.701,1.304,1.707,1.677,3.018l-3.275,0.783c-0.194-0.85-0.598-1.52-1.212-2.012
				s-1.362-0.738-2.241-0.738c-1.215,0-2.2,0.436-2.957,1.309c-0.756,0.871-1.134,2.283-1.134,4.234
				c0,2.072,0.373,3.547,1.118,4.426c0.745,0.881,1.714,1.32,2.906,1.32c0.879,0,1.635-0.279,2.269-0.84
				C414.047,416.35,414.501,415.471,414.777,414.271z"/>
			<path fill="#FFFFFF" d="M420.075,414.193c0-1.043,0.257-2.053,0.771-3.029c0.514-0.975,1.242-1.721,2.185-2.234
				c0.942-0.514,1.995-0.771,3.157-0.771c1.795,0,3.267,0.582,4.415,1.748c1.147,1.168,1.721,2.641,1.721,4.422
				c0,1.795-0.58,3.283-1.738,4.465c-1.159,1.18-2.617,1.771-4.375,1.771c-1.088,0-2.125-0.246-3.113-0.738
				s-1.738-1.213-2.252-2.162C420.332,416.713,420.075,415.557,420.075,414.193z M423.294,414.361c0,1.178,0.279,2.078,0.838,2.705
				c0.559,0.625,1.248,0.938,2.068,0.938c0.819,0,1.507-0.313,2.062-0.938c0.555-0.627,0.833-1.535,0.833-2.729
				c0-1.162-0.278-2.057-0.833-2.682c-0.555-0.625-1.243-0.939-2.062-0.939c-0.82,0-1.509,0.314-2.068,0.939
				C423.573,412.281,423.294,413.184,423.294,414.361z"/>
			<path fill="#FFFFFF" d="M445.579,420.295h-3.141v-6.057c0-1.281-0.067-2.111-0.201-2.486c-0.134-0.377-0.352-0.67-0.654-0.879
				c-0.302-0.207-0.665-0.313-1.089-0.313c-0.544,0-1.032,0.15-1.464,0.447c-0.432,0.299-0.728,0.693-0.888,1.186
				c-0.161,0.49-0.24,1.4-0.24,2.727v5.375h-3.141v-11.869h2.917v1.744c1.036-1.342,2.339-2.012,3.912-2.012
				c0.693,0,1.326,0.125,1.9,0.375c0.573,0.25,1.008,0.568,1.302,0.955c0.295,0.387,0.499,0.826,0.615,1.318
				c0.115,0.492,0.173,1.195,0.173,2.113V420.295z"/>
			<path fill="#FFFFFF" d="M459.561,420.295h-3.141v-6.057c0-1.281-0.066-2.111-0.201-2.486c-0.135-0.377-0.352-0.67-0.654-0.879
				c-0.301-0.207-0.664-0.313-1.09-0.313c-0.543,0-1.031,0.15-1.463,0.447c-0.432,0.299-0.729,0.693-0.889,1.186
				c-0.16,0.49-0.24,1.4-0.24,2.727v5.375h-3.142v-11.869h2.917v1.744c1.037-1.342,2.34-2.012,3.912-2.012
				c0.693,0,1.326,0.125,1.9,0.375s1.008,0.568,1.303,0.955c0.293,0.387,0.498,0.826,0.613,1.318s0.174,1.195,0.174,2.113V420.295z"
				/>
			<path fill="#FFFFFF" d="M469.619,416.518l3.129,0.525c-0.402,1.148-1.037,2.021-1.904,2.621c-0.869,0.6-1.955,0.9-3.258,0.9
				c-2.064,0-3.592-0.676-4.582-2.023c-0.783-1.08-1.174-2.443-1.174-4.09c0-1.969,0.514-3.508,1.541-4.623
				c1.029-1.113,2.328-1.67,3.9-1.67c1.766,0,3.16,0.582,4.18,1.748c1.021,1.168,1.51,2.953,1.465,5.359h-7.867
				c0.021,0.932,0.275,1.656,0.76,2.174s1.088,0.777,1.811,0.777c0.492,0,0.904-0.135,1.24-0.402S469.447,417.113,469.619,416.518z
				 M469.799,413.344c-0.023-0.908-0.258-1.6-0.705-2.072c-0.447-0.475-0.99-0.711-1.631-0.711c-0.686,0-1.252,0.25-1.699,0.75
				c-0.447,0.498-0.668,1.176-0.66,2.033H469.799z"/>
			<path fill="#FFFFFF" d="M485.824,411.936l-3.096,0.559c-0.104-0.617-0.34-1.084-0.709-1.396s-0.848-0.469-1.438-0.469
				c-0.781,0-1.406,0.27-1.871,0.809c-0.465,0.541-0.699,1.445-0.699,2.711c0,1.408,0.236,2.402,0.711,2.984
				c0.473,0.58,1.107,0.871,1.904,0.871c0.596,0,1.084-0.17,1.465-0.508c0.379-0.34,0.648-0.922,0.805-1.75l3.084,0.525
				c-0.32,1.416-0.936,2.486-1.844,3.209s-2.127,1.084-3.654,1.084c-1.736,0-3.121-0.549-4.152-1.645
				c-1.031-1.094-1.547-2.611-1.547-4.549c0-1.959,0.518-3.484,1.553-4.576s2.436-1.637,4.203-1.637
				c1.445,0,2.594,0.311,3.447,0.934C484.84,409.713,485.451,410.662,485.824,411.936z"/>
			<path fill="#FFFFFF" d="M493.648,408.426v2.504h-2.146v4.783c0,0.969,0.02,1.533,0.061,1.693s0.135,0.293,0.279,0.396
				c0.146,0.105,0.322,0.156,0.531,0.156c0.291,0,0.713-0.1,1.264-0.301l0.268,2.436c-0.73,0.313-1.557,0.471-2.48,0.471
				c-0.566,0-1.076-0.096-1.531-0.285c-0.455-0.191-0.787-0.436-1-0.738c-0.213-0.301-0.359-0.709-0.441-1.225
				c-0.068-0.363-0.102-1.102-0.102-2.213v-5.174h-1.441v-2.504h1.441v-2.357l3.152-1.834v4.191H493.648z"/>
			<path fill="#FFFFFF" d="M512.691,414.271l3.209,1.018c-0.492,1.787-1.311,3.115-2.453,3.984
				c-1.145,0.867-2.596,1.301-4.354,1.301c-2.176,0-3.965-0.742-5.365-2.229s-2.102-3.52-2.102-6.098
				c0-2.727,0.705-4.844,2.113-6.354c1.408-1.508,3.26-2.264,5.555-2.264c2.004,0,3.631,0.594,4.883,1.777
				c0.746,0.701,1.305,1.707,1.678,3.018l-3.275,0.783c-0.193-0.85-0.598-1.52-1.213-2.012s-1.361-0.738-2.24-0.738
				c-1.215,0-2.199,0.436-2.957,1.309c-0.756,0.871-1.133,2.283-1.133,4.234c0,2.072,0.371,3.547,1.117,4.426
				c0.744,0.881,1.713,1.32,2.906,1.32c0.879,0,1.635-0.279,2.268-0.84C511.961,416.35,512.416,415.471,512.691,414.271z"/>
			<path fill="#FFFFFF" d="M521.846,403.912v6.023c1.012-1.186,2.223-1.777,3.631-1.777c0.723,0,1.375,0.135,1.957,0.402
				c0.58,0.268,1.018,0.611,1.313,1.027c0.295,0.418,0.496,0.881,0.604,1.387s0.162,1.293,0.162,2.357v6.963h-3.141v-6.27
				c0-1.244-0.059-2.033-0.178-2.369c-0.121-0.336-0.33-0.602-0.633-0.799c-0.301-0.197-0.68-0.297-1.135-0.297
				c-0.521,0-0.986,0.127-1.396,0.381s-0.709,0.635-0.898,1.145c-0.191,0.512-0.285,1.266-0.285,2.264v5.945h-3.141v-16.383H521.846
				z"/>
			<path fill="#FFFFFF" d="M532.697,406.816v-2.904h3.141v2.904H532.697z M532.697,420.295v-11.869h3.141v11.869H532.697z"/>
			<path fill="#FFFFFF" d="M549.854,420.295h-3.141v-6.057c0-1.281-0.068-2.111-0.201-2.486c-0.135-0.377-0.354-0.67-0.654-0.879
				c-0.303-0.207-0.666-0.313-1.09-0.313c-0.545,0-1.031,0.15-1.465,0.447c-0.432,0.299-0.729,0.693-0.889,1.186
				c-0.16,0.49-0.24,1.4-0.24,2.727v5.375h-3.141v-11.869h2.918v1.744c1.035-1.342,2.34-2.012,3.912-2.012
				c0.691,0,1.326,0.125,1.898,0.375c0.574,0.25,1.008,0.568,1.303,0.955s0.5,0.826,0.615,1.318s0.174,1.195,0.174,2.113V420.295z"
				/>
			<path fill="#FFFFFF" d="M555.385,412.047l-2.85-0.514c0.32-1.146,0.871-1.996,1.654-2.549c0.781-0.551,1.943-0.826,3.486-0.826
				c1.4,0,2.443,0.166,3.129,0.498c0.686,0.33,1.168,0.752,1.447,1.262c0.279,0.512,0.42,1.447,0.42,2.811l-0.033,3.666
				c0,1.043,0.051,1.813,0.15,2.309c0.102,0.496,0.289,1.025,0.564,1.592h-3.107c-0.082-0.209-0.182-0.518-0.301-0.928
				c-0.053-0.186-0.09-0.309-0.113-0.369c-0.535,0.523-1.109,0.914-1.721,1.174c-0.611,0.262-1.262,0.393-1.955,0.393
				c-1.223,0-2.186-0.332-2.889-0.996c-0.705-0.662-1.057-1.5-1.057-2.514c0-0.672,0.16-1.27,0.48-1.795s0.77-0.928,1.348-1.207
				c0.576-0.279,1.408-0.523,2.496-0.73c1.469-0.275,2.486-0.533,3.053-0.771v-0.313c0-0.604-0.15-1.035-0.447-1.291
				c-0.299-0.258-0.861-0.387-1.688-0.387c-0.559,0-0.996,0.111-1.309,0.33C555.832,411.111,555.578,411.496,555.385,412.047z
				 M559.588,414.596c-0.402,0.135-1.041,0.295-1.912,0.48s-1.441,0.369-1.709,0.547c-0.41,0.291-0.615,0.66-0.615,1.107
				c0,0.439,0.164,0.82,0.492,1.141c0.326,0.32,0.744,0.48,1.252,0.48c0.564,0,1.105-0.188,1.619-0.561
				c0.381-0.281,0.631-0.629,0.75-1.039c0.082-0.268,0.123-0.777,0.123-1.531V414.596z"/>
			<path fill="#FFFFFF" d="M572.049,420.295v-16.383h3.309v16.383H572.049z"/>
			<path fill="#FFFFFF" d="M589.283,420.295h-3.141v-6.057c0-1.281-0.068-2.111-0.201-2.486c-0.135-0.377-0.354-0.67-0.654-0.879
				c-0.303-0.207-0.666-0.313-1.09-0.313c-0.545,0-1.031,0.15-1.465,0.447c-0.432,0.299-0.729,0.693-0.889,1.186
				c-0.16,0.49-0.24,1.4-0.24,2.727v5.375h-3.141v-11.869h2.918v1.744c1.035-1.342,2.34-2.012,3.912-2.012
				c0.691,0,1.326,0.125,1.898,0.375c0.574,0.25,1.008,0.568,1.303,0.955s0.5,0.826,0.615,1.318s0.174,1.195,0.174,2.113V420.295z"
				/>
			<path fill="#FFFFFF" d="M602.816,411.936l-3.096,0.559c-0.104-0.617-0.34-1.084-0.709-1.396s-0.848-0.469-1.438-0.469
				c-0.781,0-1.406,0.27-1.871,0.809c-0.465,0.541-0.699,1.445-0.699,2.711c0,1.408,0.236,2.402,0.711,2.984
				c0.473,0.58,1.107,0.871,1.904,0.871c0.596,0,1.084-0.17,1.465-0.508c0.379-0.34,0.648-0.922,0.805-1.75l3.084,0.525
				c-0.32,1.416-0.936,2.486-1.844,3.209s-2.127,1.084-3.654,1.084c-1.736,0-3.121-0.549-4.152-1.645
				c-1.031-1.094-1.547-2.611-1.547-4.549c0-1.959,0.518-3.484,1.553-4.576s2.436-1.637,4.203-1.637
				c1.445,0,2.594,0.311,3.447,0.934C601.832,409.713,602.443,410.662,602.816,411.936z"/>
		</g>
	</g>
</g>
</svg>
